<?xml version="1.0" standalone="no"?>
<!DOCTYPE svg PUBLIC "-//W3C//DTD SVG 20010904//EN"
 "http://www.w3.org/TR/2001/REC-SVG-20010904/DTD/svg10.dtd">
<svg version="1.0" xmlns="http://www.w3.org/2000/svg"
 width="700.000000pt" height="700.000000pt" viewBox="0 0 700.000000 700.000000"
 preserveAspectRatio="xMidYMid meet">
<metadata>
Created by potrace 1.11, written by Peter Selinger 2001-2013
</metadata>
<g transform="translate(0.000000,700.000000) scale(0.100000,-0.100000)"
fill="#000000" stroke="none">
<path d="M3278 6995 c-2 -1 -43 -6 -93 -10 -49 -4 -92 -8 -95 -10 -3 -1 -33
-5 -66 -9 -171 -18 -457 -86 -675 -162 -136 -47 -148 -52 -299 -120 -915 -413
-1622 -1227 -1906 -2194 -25 -85 -51 -183 -60 -230 -4 -20 -13 -62 -19 -90 -1
-3 -5 -30 -10 -60 -5 -30 -9 -57 -10 -60 -1 -3 -5 -34 -10 -70 -4 -36 -9 -76
-11 -90 -13 -97 -18 -212 -18 -385 0 -276 8 -373 60 -678 22 -130 136 -522
178 -612 8 -16 24 -55 36 -85 28 -72 150 -315 196 -394 149 -250 314 -465 505
-661 l78 -80 -36 -40 c-19 -22 -56 -62 -82 -90 -25 -27 -81 -90 -124 -138
l-78 -88 38 -32 c53 -45 81 -69 107 -92 69 -61 96 -84 145 -125 l54 -44 19 24
c11 14 30 36 41 50 12 14 71 85 131 158 60 72 111 132 113 132 3 0 22 -13 42
-29 114 -90 380 -251 561 -338 165 -80 513 -209 613 -227 12 -2 42 -9 67 -16
25 -7 54 -14 65 -16 21 -4 36 -7 120 -24 62 -12 95 -17 154 -26 25 -3 57 -7
70 -10 127 -19 581 -26 736 -10 106 10 145 15 175 21 14 3 45 7 70 10 74 9
233 44 385 86 443 121 884 348 1249 642 283 228 561 536 748 830 211 332 362
681 453 1048 32 131 40 168 50 234 3 17 7 40 9 52 5 24 15 90 21 143 27 221
27 655 0 840 -2 14 -6 46 -10 71 -3 26 -7 55 -9 65 -2 11 -11 60 -21 109 -56
307 -174 647 -323 935 -56 109 -132 240 -138 240 -4 0 -32 -58 -183 -388 -61
-133 -115 -250 -120 -260 -6 -9 -34 -71 -64 -137 -30 -66 -104 -226 -164 -355
-161 -345 -171 -368 -321 -695 l-138 -300 -60 -30 c-57 -29 -139 -67 -234
-108 -25 -11 -70 -31 -100 -44 -30 -14 -228 -103 -440 -198 -212 -95 -612
-275 -890 -400 -278 -125 -633 -285 -790 -355 -157 -70 -319 -144 -361 -163
-42 -19 -110 -50 -150 -67 -41 -18 -103 -46 -139 -62 -143 -66 -145 -76 27
139 87 109 162 203 168 209 5 6 21 26 35 44 14 18 32 41 40 50 8 10 60 75 115
145 153 193 515 647 534 670 9 11 162 204 341 429 179 225 346 430 372 456 48
48 105 73 147 65 13 -2 55 -20 93 -39 81 -40 123 -41 203 -2 67 33 185 143
281 263 44 54 81 100 84 103 15 14 375 510 505 695 54 77 125 177 157 223 55
75 67 112 39 112 -5 0 -76 -78 -158 -172 -81 -95 -152 -178 -158 -184 -5 -6
-30 -35 -55 -64 -25 -29 -49 -58 -55 -64 -5 -6 -35 -40 -65 -76 -30 -35 -62
-72 -70 -80 -8 -9 -26 -30 -40 -46 -14 -16 -69 -81 -124 -144 -54 -63 -119
-139 -145 -169 -72 -85 -90 -101 -115 -101 -34 0 -60 33 -50 63 7 19 204 272
259 331 6 6 71 85 145 176 74 91 142 174 152 185 143 171 358 442 358 452 0
23 -33 14 -58 -14 -13 -16 -38 -44 -55 -63 -18 -19 -72 -80 -122 -135 -49 -55
-92 -102 -95 -105 -7 -7 -77 -85 -170 -190 -41 -46 -82 -91 -90 -100 -19 -20
-79 -87 -190 -210 -47 -52 -112 -124 -144 -160 -71 -79 -85 -90 -108 -90 -22
0 -58 38 -58 61 0 10 53 82 118 161 64 79 144 177 177 218 33 41 62 77 65 80
3 3 86 104 185 225 98 121 193 236 209 256 17 20 47 55 66 79 19 24 50 61 68
83 35 43 39 55 18 63 -16 6 -22 1 -126 -116 -41 -47 -78 -87 -81 -90 -3 -3
-29 -32 -59 -65 -29 -33 -86 -96 -126 -140 -40 -44 -81 -89 -91 -101 -10 -11
-52 -58 -93 -104 -41 -45 -84 -92 -95 -105 -110 -123 -268 -298 -297 -327 -32
-33 -60 -36 -87 -7 -30 32 -15 57 126 219 69 80 149 172 177 204 28 33 69 80
91 106 22 25 63 72 90 104 75 88 84 99 108 126 12 14 65 75 117 135 52 61 123
143 157 182 62 71 77 103 49 103 -16 0 -22 -6 -272 -245 -346 -331 -730 -719
-802 -810 -100 -125 -147 -221 -147 -300 0 -55 4 -65 43 -122 63 -89 69 -123
32 -198 -16 -33 -47 -78 -68 -100 -20 -22 -69 -74 -107 -115 -39 -42 -121
-131 -184 -198 -62 -67 -121 -131 -131 -142 -9 -11 -72 -78 -140 -150 -68 -72
-131 -140 -141 -152 -11 -11 -68 -73 -127 -137 -114 -122 -202 -216 -248 -266
-27 -30 -211 -228 -315 -340 -32 -33 -70 -74 -85 -91 -16 -17 -72 -78 -125
-135 -53 -57 -108 -117 -123 -134 -86 -94 -106 -114 -117 -120 -7 -5 -10 -4
-5 3 3 6 85 294 182 639 96 345 203 732 239 858 35 127 103 370 150 540 48
171 111 396 140 500 29 105 97 348 150 540 55 199 103 354 111 360 20 14 389
257 684 451 248 163 918 606 1153 762 l128 85 -58 24 c-289 119 -654 212 -933
239 -30 3 -66 8 -80 11 -27 5 -536 13 -542 8z"/>
</g>
</svg>
