<svg xmlns="http://www.w3.org/2000/svg" viewBox="0 0 1283.8 263.5"><path fill="#B29600" d="M243.4 62.3l-37.2 80.8-136.9 61.5L109.6 60 184 11C132.6-11.3 70.5 1.2 32 46c-47.3 55-41.1 138.1 14 185.4 55.1 47.4 138.1 41.1 185.4-13.9 38.4-44.7 41.6-107.7 12-155.2z"/><path fill="#9B852D" d="M227.8 96.1l-21.7 47-136.8 61.5L109.6 60 153 31.4c-11.8-2.5-24.3-3-37-1-56 8.8-94.3 61.2-85.5 117.1s61.1 94.2 117.1 85.5 94.1-61.1 85.4-117c-1.1-7-2.8-13.6-5.2-19.9z"/><g fill="#907D2C"><path d="M125.7 49.3l11.3-7.5c-6.3-.4-12.7-.1-19.2.9-23.8 3.8-44 16.7-57.6 34.5C73.4 63.4 91 53.6 111.4 50.4c4.8-.7 9.6-1.1 14.3-1.1zM219.9 113.4l-5.7 12.3c3.9 25.1-3.1 49.4-17.4 68.2 18.6-19.6 28.3-47.2 23.9-76-.3-1.5-.5-3-.8-4.5z"/></g><path fill="#9B852D" d="M206.1 63.7c.2-.3.1-.7-.2-1-.3-.2-.7-.2-1 0L170 103.2l-.1.1c-.7.9-2 .9-2.9.2-.9-.7-.9-2-.2-2.9l.1-.1 33.9-41.4c.2-.3.1-.7-.2-1-.3-.2-.7-.2-1 0l-35.8 39.7-.1.1c-.7.9-2 .9-2.9.2l-.1-.1-.1-.1c-.9-.7-.9-2-.2-2.9l.1-.1 33.9-41.4c.2-.3.1-.7-.2-1s-.7-.2-1 0l-35.8 39.7-.1.1c-.7.9-2 .9-2.9.2-.9-.7-.9-2-.2-2.9l.1-.1L189.2 49c.2-.3.1-.7-.2-1-.3-.2-.7-.2-1 0 0 0-30.6 28.9-38.2 37.7-6.3 7.3-9.4 13.3-5.6 17.5 3.6 3.9 3.2 6.9-1.8 12.1 0 0-114.3 122.8-114.4 123.9l6.4 5.5 6.4 5.5c1.1-.3 105.4-131.6 105.4-131.6 4.5-5.7 7.3-6.5 11.7-3.5 4.7 3.2 10.1-.8 16.5-8.1 7.7-8.7 31.7-43.3 31.7-43.3z"/><path d="M310.5 159.3v-8.1l3.3-.3c1.9-.2 2.9-1.1 2.9-2.8v-46.5l-5.7-.3v-8.5h27.4c9.8 0 17.5 2.6 23 7.8 5.5 5.2 8.2 12.9 8.2 23.1 0 6.3-.8 11.9-2.5 16.6-1.7 4.7-3.9 8.4-6.8 11-5.7 5.3-12.9 8-21.4 8h-28.4zm18.4-56.8v47.2h10.2c5.7 0 10.2-2.1 13.4-6.2 3.2-4.1 4.8-10.1 4.8-18 0-15.3-6.5-23-19.5-23h-8.9zM402 107.5c5 0 9 1.2 11.9 3.6 2.9 2.4 4.4 5.9 4.4 10.2 0 2.9-.6 5.5-1.9 7.8-1.3 2.2-2.8 4-4.7 5.2-1.9 1.3-4.1 2.3-6.8 3.1-4.5 1.3-9.5 2-15.1 2 .2 3.5 1.3 6.4 3.3 8.5 2 2.2 5.1 3.2 9.2 3.2s8.3-1.5 12.4-4.4l3.8 8.1c-1.3 1.2-3.6 2.4-6.8 3.7-3.2 1.3-6.8 1.9-10.9 1.9-8.1 0-14.1-2.2-17.9-6.8-3.8-4.5-5.7-10.7-5.7-18.5 0-7.9 2.2-14.5 6.5-19.8 4.4-5.1 10.5-7.8 18.3-7.8zm-4.6 22.9c2.4-.4 4.7-1.4 6.8-2.9 2.1-1.5 3.1-3.3 3.1-5.4 0-4.1-2-6.1-6-6.1-3.7 0-6.6 1.5-8.6 4.4-2 3-3.1 6.5-3.3 10.6 2.9 0 5.6-.2 8-.6zM424.7 117.1V109h16.9v6.5c3.7-5.3 8.9-8 15.4-8s10.9 2.7 13.1 8c3.7-5.3 8.8-8 15.2-8 4.8 0 8.5 1.4 11.1 4.3 2.6 2.9 3.9 7.2 3.9 13.1V151l5.7.3v8h-23.8v-7.6l3.3-.3c1-.1 1.7-.4 2.1-.9.4-.4.7-1.2.8-2.4v-20.7c0-3.7-.4-6.4-1.2-8.2-.8-1.8-2.8-2.6-5.9-2.6-3.1 0-5.4.9-7 2.8-1.6 1.9-2.5 4.4-2.5 7.5v24l5.5.3v8h-23.6v-7.6l3.3-.3c1-.1 1.7-.4 2.2-.9.5-.4.7-1.2.7-2.5v-20.6c0-3.7-.4-6.4-1.2-8.2-.8-1.8-2.8-2.6-5.9-2.6s-5.5 1-7 2.9c-1.6 1.9-2.4 4.3-2.4 7.2V151l5.4.3v8h-23.6v-7.6l3.3-.3c1-.1 1.7-.4 2.2-.9.5-.4.7-1.2.7-2.5h.1v-27.6c0-1.1-.2-1.9-.5-2.4-.4-.4-1-.7-2-.8l-4.3-.1zM556.8 111v37.2c0 1.1.2 1.8.5 2.2.4.4 1 .6 2 .7l3.2.2v8h-15.9v-5.8l-.3-.1c-3.3 4.8-7.9 7.2-13.7 7.2-6.8 0-11.8-2.2-15.1-6.5-3.3-4.3-4.9-10.3-4.9-17.8 0-9.1 2.2-16.1 6.6-21.2 4.4-5.1 11-7.6 19.8-7.6 5.6 0 11.6 1.2 17.8 3.5zm-11.6 32.4v-25.9c-1.9-.9-4.4-1.3-7.7-1.3-4.5 0-7.7 1.8-9.7 5.4-2 3.6-3 8.4-3 14.3 0 10.8 3.5 16.2 10.4 16.2 2.9 0 5.3-.9 7.2-2.6 1.8-1.8 2.8-3.8 2.8-6.1zM568 117v-8h16.9v6.5c1.7-2.5 4-4.4 6.9-5.9 2.9-1.4 6-2.1 9.3-2.1 5.1 0 9 1.4 11.8 4.3 2.8 2.9 4.2 7.2 4.2 13.1V151l5.7.3v8H599v-7.6l3.3-.3c1-.1 1.7-.4 2.2-.9.5-.4.7-1.2.7-2.5v-20.6c0-3.7-.6-6.4-1.7-8.2-1.1-1.8-3.3-2.6-6.5-2.6s-5.7 1-7.5 3c-1.9 2-2.8 4.4-2.8 7.1V151l5.7.3v8h-23.8v-7.6l3.3-.3c1-.1 1.7-.4 2.2-.9.5-.4.7-1.2.7-2.5v-27.7c0-2-.8-3-2.5-3.1l-4.3-.2zM653.6 107.5c2.9 0 5.6.4 8.2 1.2V98.6c0-1.5-.9-2.3-2.6-2.4l-4.3-.3V88h18.6v60.8c.1 1.5.9 2.3 2.5 2.3l3.5.2v8h-16.2v-5.9l-.3-.1c-3 4.9-7.5 7.3-13.6 7.3-7.6 0-12.9-2.5-16-7.6-2.8-4.6-4.2-10.2-4.2-16.9 0-8.7 2.1-15.6 6.5-20.8 4.3-5.2 10.3-7.8 17.9-7.8zm8.2 36.2v-25.9c-2.4-1.1-4.9-1.6-7.6-1.6-4.4 0-7.6 1.8-9.6 5.3s-3.1 8-3.1 13.5c0 11.2 3.6 16.8 10.8 16.8 2.7 0 5-.8 6.8-2.4 1.8-1.5 2.7-3.4 2.7-5.7zM703.4 109v42l5.7.3v8h-23.8v-7.6l3.3-.3c1.9-.2 2.9-1.3 2.9-3.2v-27.8c0-1.1-.2-1.9-.5-2.3-.4-.4-1-.6-2-.6l-3.5-.2V109h17.9zm-12.6-8.6c-1.4-1.4-2.1-3.1-2.1-5.2s.7-3.9 2.1-5.3c1.4-1.4 3.2-2.2 5.5-2.2s4.1.7 5.6 2.2c1.4 1.4 2.1 3.2 2.1 5.3 0 2.1-.7 3.9-2.1 5.2-1.4 1.4-3.3 2.1-5.6 2.1-2.2-.1-4.1-.8-5.5-2.1zM714.3 117v-8h16.9v6.5c1.7-2.5 4-4.4 6.9-5.9 2.9-1.4 6-2.1 9.3-2.1 5.1 0 9 1.4 11.8 4.3 2.8 2.9 4.2 7.2 4.2 13.1V151l5.7.3v8h-23.8v-7.6l3.3-.3c1-.1 1.7-.4 2.2-.9.5-.4.7-1.2.7-2.5v-20.6c0-3.7-.6-6.4-1.7-8.2-1.1-1.8-3.3-2.6-6.5-2.6s-5.7 1-7.5 3c-1.9 2-2.8 4.4-2.8 7.1V151l5.7.3v8h-23.8v-7.6l3.3-.3c1-.1 1.7-.4 2.2-.9.5-.4.7-1.2.7-2.5v-27.7c0-2-.8-3-2.5-3.1l-4.3-.2zM813 175.5c-3.7 3.5-9.4 5.2-17.2 5.2-7.8 0-13.9-1.1-18.3-3.3v-13.9l9.5-.8v4.8c0 1.8.8 3 2.5 3.6 1.7.6 4 .9 6.9.9 4.3 0 7.3-1.3 9-3.8 1.7-2.6 2.6-6.2 2.6-10.9v-5.5c-3.2 3.7-7.6 5.6-13.3 5.6-3.5 0-6.5-.7-9.1-2-2.6-1.3-4.7-3.1-6.2-5.4-2.9-4.5-4.3-9.9-4.3-16 0-8.7 2.4-15.3 7.1-19.8 4.7-4.5 11-6.8 18.9-6.8 6.5 0 12.7 1.2 18.5 3.7v37.1c0 5.7-.1 9.3-.2 10.9-.6 7.5-2.7 12.9-6.4 16.4zm-5-36.6v-21.5c-2.3-.8-5-1.2-8-1.2-4.1 0-7.2 1.5-9.4 4.5s-3.2 7.1-3.2 12.2c0 10.5 3.5 15.8 10.4 15.8 2.9 0 5.3-.9 7.2-2.6 2.1-1.8 3-4.2 3-7.2z"/><path fill="#B29000" d="M876.9 159.3h-47.5v-8.1l3.3-.3c1.9-.2 2.9-1.1 2.9-2.8v-46.5l-5.7-.3v-8.5h45.8v16.6l-10.2.7v-4c0-1.1-.2-1.9-.5-2.4s-1.1-.7-2.4-.7h-14.8v17.1h23.1v10.2h-23.1V149h16.1c1.2 0 2-.2 2.3-.8.3-.5.5-1.3.5-2.5v-5l10.2.7v17.9zM889.8 168.8v-48.4c0-1.1-.2-1.9-.5-2.4-.4-.4-1-.6-2-.6l-4.2-.3V109H900v6.5c1.1-2 3-3.8 5.8-5.5 2.8-1.7 6.1-2.5 10-2.5 12.1 0 18.1 8.5 18.1 25.4 0 9-2 15.9-5.9 20.7-3.9 4.8-9.3 7.2-16 7.2-4 0-7.6-1-10.7-2.9v13.8l8.1.4v7.9h-25.8v-7.6l3.3-.3c1-.1 1.7-.4 2.2-.8.5-.5.7-1.3.7-2.5zm31.7-34.9c0-11.1-3.4-16.7-10.1-16.7-2.8 0-5.2.9-7.1 2.6-2 1.7-3 3.7-3 6v23c2.5 1.7 5.6 2.5 9.2 2.5 3.6 0 6.4-1.7 8.2-5 1.9-3.3 2.8-7.5 2.8-12.4zM959.1 109v42l5.7.3v8H941v-7.6l3.3-.3c1.9-.2 2.9-1.3 2.9-3.2v-27.8c0-1.1-.2-1.9-.5-2.3-.4-.4-1-.6-2-.6l-3.5-.2V109h17.9zm-12.6-8.6c-1.4-1.4-2.1-3.1-2.1-5.2s.7-3.9 2.1-5.3c1.4-1.4 3.2-2.2 5.5-2.2s4.1.7 5.6 2.2c1.4 1.4 2.1 3.2 2.1 5.3 0 2.1-.7 3.9-2.1 5.2-1.4 1.4-3.3 2.1-5.6 2.1-2.2-.1-4.1-.8-5.5-2.1zM985.9 146.8c2.1 3.1 5.2 4.7 9.2 4.7 4 0 8-1.4 11.9-4.3l4.3 7.7c-4.7 3.9-10.7 5.8-17.8 5.8-7.1 0-12.8-2.2-16.8-6.8-4.1-4.5-6.2-11.1-6.2-19.9 0-8.8 2.4-15.4 7.1-19.9 4.7-4.4 10-6.6 15.9-6.6s11.4 1.4 16.5 4.1v13l-9.2.7v-4.8c0-1.8-.6-2.9-2-3.4-1.3-.4-2.6-.6-4-.6-8.1 0-12.1 5.7-12.1 17.1 0 5.7 1.1 10.1 3.2 13.2zM1069.7 151.4v7.9h-16.2v-6.5c-3.7 5.2-9.1 7.8-16.2 7.8-10.3 0-15.5-5.8-15.5-17.3v-23.1c0-1.8-.8-2.7-2.5-2.8l-3.2-.2V109h17.6v31.7c0 3.5.5 6.2 1.5 8 1 1.8 3.1 2.7 6.2 2.7s5.6-1 7.5-2.9c1.9-1.9 2.9-4.3 2.9-7v-21.1c0-1.1-.2-1.8-.5-2.2-.4-.4-1-.7-2-.8l-3.2-.2V109h17.6v39.2c0 1.1.2 1.8.5 2.1.3.4 1 .6 2 .8l3.5.3zM1082 148.1v-27.7c0-1.1-.2-1.8-.5-2.2-.4-.4-1-.7-2-.8l-4.2-.3V109h16.9v7.5c1.2-2.6 3.1-4.8 5.6-6.5 2.5-1.7 5.5-2.5 8.8-2.5 3.3 0 6.5.7 9.5 2.2v14.9l-9.3.7v-4.6c0-1.3-.3-2.2-1-2.5-.7-.3-1.6-.5-2.7-.5-2.7 0-4.9 1-6.5 2.9-1.7 1.9-2.6 4.3-2.6 7.2V151l8.7.4v7.9h-26.8v-7.6l3.3-.3c1-.1 1.7-.4 2.2-.9.4-.4.6-1.2.6-2.4zM1147.1 107.5c5 0 9 1.2 11.9 3.6 2.9 2.4 4.4 5.9 4.4 10.2 0 2.9-.6 5.5-1.9 7.8-1.3 2.2-2.8 4-4.7 5.2-1.9 1.3-4.1 2.3-6.8 3.1-4.5 1.3-9.5 2-15.1 2 .2 3.5 1.3 6.4 3.3 8.5 2 2.2 5.1 3.2 9.2 3.2s8.3-1.5 12.4-4.4l3.8 8.1c-1.3 1.2-3.6 2.4-6.8 3.7-3.2 1.3-6.8 1.9-10.9 1.9-8.1 0-14.1-2.2-17.9-6.8-3.8-4.5-5.7-10.7-5.7-18.5 0-7.9 2.2-14.5 6.5-19.8 4.5-5.1 10.5-7.8 18.3-7.8zm-4.5 22.9c2.4-.4 4.7-1.4 6.8-2.9 2.1-1.5 3.1-3.3 3.1-5.4 0-4.1-2-6.1-6-6.1-3.7 0-6.6 1.5-8.6 4.4-2 3-3.1 6.5-3.3 10.6 2.9 0 5.6-.2 8-.6zM1215.3 111v37.2c0 1.1.2 1.8.5 2.2.4.4 1 .6 2 .7l3.2.2v8h-15.9v-5.8l-.3-.1c-3.3 4.8-7.9 7.2-13.7 7.2-6.8 0-11.8-2.2-15.1-6.5-3.3-4.3-4.9-10.3-4.9-17.8 0-9.1 2.2-16.1 6.6-21.2 4.4-5.1 11-7.6 19.8-7.6 5.7 0 11.6 1.2 17.8 3.5zm-11.6 32.4v-25.9c-1.9-.9-4.4-1.3-7.7-1.3-4.5 0-7.7 1.8-9.7 5.4-2 3.6-3 8.4-3 14.3 0 10.8 3.5 16.2 10.4 16.2 2.9 0 5.3-.9 7.2-2.6 1.9-1.8 2.8-3.8 2.8-6.1zM1226.5 117v-8h16.9v6.5c1.7-2.5 4-4.4 6.9-5.9 2.9-1.4 6-2.1 9.3-2.1 5.1 0 9 1.4 11.8 4.3 2.8 2.9 4.2 7.2 4.2 13.1V151l5.7.3v8h-23.8v-7.6l3.3-.3c1-.1 1.7-.4 2.2-.9.5-.4.7-1.2.7-2.5v-20.6c0-3.7-.6-6.4-1.7-8.2-1.1-1.8-3.3-2.6-6.5-2.6s-5.7 1-7.5 3c-1.9 2-2.8 4.4-2.8 7.1V151l5.7.3v8H1227v-7.6l3.3-.3c1-.1 1.7-.4 2.2-.9.5-.4.7-1.2.7-2.5v-27.7c0-2-.8-3-2.5-3.1l-4.2-.2z"/></svg>
