<?xml version="1.0" encoding="utf-8"?>
<!-- Generator: Adobe Illustrator 22.1.0, SVG Export Plug-In . SVG Version: 6.00 Build 0)  -->
<svg version="1.1" id="Layer_1" xmlns="http://www.w3.org/2000/svg" xmlns:xlink="http://www.w3.org/1999/xlink" x="0px" y="0px"
	 width="185.3px" height="110.4px" viewBox="0 0 185.3 110.4" enable-background="new 0 0 185.3 110.4" xml:space="preserve">
<path fill="#2D9402" d="M55.2,110.4H56c30.5,0,55.2-24.7,55.2-55.2S86.5,0,56,0h-0.8V110.4z"/>
<path fill="#C0F16A" d="M55.2,107H56c28.6,0,51.9-23.2,51.9-51.9c0-28.6-23.2-51.9-51.9-51.9h-0.8V107z"/>
<path fill="#63C902" d="M60.2,54.2c0,0,7.1-2.6,16.9-5c11.6-2.8,22.7-6.3,25.2-0.9s2.3,15-2.3,16.2c-4.7,1.3-37.5-8.3-39.3-8.9
	C58.9,55.1,60.2,54.2,60.2,54.2z"/>
<g opacity="0.5">
	<path fill="#C0F16A" d="M98.4,63.1c-1.8-0.2-3.6-0.5-5.3-0.7c-0.9-0.1-1.8-0.2-2.6-0.4c-0.9-0.2-1.7-0.4-2.5-0.8
		c0.9,0,1.8,0.1,2.7,0.2c0.9,0.1,1.7,0.4,2.6,0.5C95,62.2,96.7,62.6,98.4,63.1C98.5,63,98.5,63.1,98.4,63.1
		C98.5,63.1,98.5,63.1,98.4,63.1z M88.8,59c-2.1-0.2-4.1-0.4-6.2-0.6c-1-0.1-2.1-0.2-3.1-0.4s-2-0.4-3-0.7c1.1,0,2.1,0,3.1,0.1
		s2,0.3,3,0.5C84.7,58.2,86.8,58.6,88.8,59C88.8,58.9,88.8,59,88.8,59z M74.5,56.3c-1.7-0.1-3.3-0.2-5-0.3c-0.8-0.1-1.7-0.1-2.5-0.2
		s-1.6-0.3-2.4-0.6c0.9-0.1,1.7-0.1,2.5,0c0.8,0,1.6,0.2,2.5,0.4C71.2,55.7,72.9,55.9,74.5,56.3C74.5,56.2,74.5,56.2,74.5,56.3z
		 M84.4,60.5l-2.7-0.3c-0.5-0.1-0.9-0.1-1.4-0.2c-0.4-0.1-0.8-0.3-1.2-0.6v-0.1c0.5-0.1,1-0.1,1.4,0c0.5,0,0.9,0.2,1.3,0.3
		C82.7,59.9,83.6,60.2,84.4,60.5C84.4,60.4,84.5,60.5,84.4,60.5z M99.5,47.4l-4.8,0.9c-0.8,0.1-1.6,0.3-2.4,0.4
		c-0.8,0.1-1.7,0.1-2.5,0c0.8-0.3,1.6-0.5,2.4-0.7s1.6-0.2,2.5-0.3C96.2,47.6,97.8,47.5,99.5,47.4C99.5,47.3,99.5,47.3,99.5,47.4z
		 M87.6,47.9c-1.4,0.4-2.7,0.9-4.1,1.3c-0.7,0.2-1.4,0.5-2.1,0.6c-0.7,0.1-1.5,0.2-2.3,0.2c0,0-0.1,0,0,0c0.6-0.4,1.3-0.6,2-0.8
		c0.7-0.2,1.4-0.3,2.2-0.5C84.7,48.4,86.1,48.1,87.6,47.9C87.6,47.8,87.6,47.9,87.6,47.9z M82.3,51.3l-5.7,0.9
		c-0.9,0.1-1.9,0.3-2.8,0.4c-1,0.1-1.9,0.1-2.9,0c0.9-0.3,1.8-0.5,2.8-0.7c0.9-0.2,1.9-0.2,2.9-0.3C78.4,51.5,80.3,51.3,82.3,51.3
		C82.3,51.2,82.3,51.2,82.3,51.3C82.3,51.2,82.3,51.3,82.3,51.3z M101.5,53.1c-2.1,0.2-4.2,0.3-6.2,0.5c-1,0.1-2.1,0.2-3.1,0.2
		s-2.1,0-3.2-0.2c1-0.2,2.1-0.3,3.1-0.4c1-0.1,2.1,0,3.1,0C97.3,53,99.4,53,101.5,53.1C101.5,53,101.5,53,101.5,53.1
		C101.5,53,101.5,53.1,101.5,53.1z M95.8,57.3c-2.4-0.1-4.8-0.3-7.1-0.4c-1.2-0.1-2.4-0.1-3.6-0.3c-1.2-0.2-2.3-0.3-3.5-0.6
		c1.2-0.1,2.4,0,3.6,0c1.2,0.1,2.4,0.3,3.5,0.4C91.1,56.6,93.5,56.9,95.8,57.3C95.9,57.2,95.9,57.2,95.8,57.3
		C95.9,57.3,95.8,57.3,95.8,57.3z M101.4,60c-1.5-0.1-3-0.3-4.4-0.4c-0.7-0.1-1.5-0.1-2.2-0.3c-0.7-0.2-1.4-0.3-2.1-0.6v-0.1
		c0.8-0.1,1.5,0,2.3,0c0.7,0.1,1.4,0.3,2.2,0.4C98.5,59.3,100,59.6,101.4,60C101.4,59.9,101.4,59.9,101.4,60z M84.3,53.3
		c-1.4,0.1-2.7,0.2-4.1,0.3c-0.7,0-1.4,0.1-2.1,0.1c-0.7,0-1.4-0.1-2.1-0.3c0.7-0.2,1.4-0.3,2-0.4c0.7-0.1,1.4,0,2.1,0
		C81.6,53.2,82.9,53.2,84.3,53.3C84.3,53.3,84.4,53.3,84.3,53.3C84.4,53.3,84.3,53.3,84.3,53.3z M98,49.8c-1.7,0.3-3.4,0.5-5.1,0.7
		c-0.8,0.1-1.7,0.3-2.5,0.3c-0.9,0-1.7,0-2.6-0.1c0.8-0.3,1.7-0.4,2.5-0.6c0.8-0.1,1.7-0.1,2.6-0.2C94.6,49.8,96.3,49.8,98,49.8
		C98.1,49.7,98.1,49.7,98,49.8C98.1,49.7,98.1,49.8,98,49.8z"/>
</g>
<path fill="#63C902" d="M59.8,57.2c0,0,7.3,2.1,16.6,5.9c11.1,4.6,22,8.2,20.9,14.1c-1.1,5.9-6.9,13.5-11.5,11.8
	c-4.6-1.7-25.4-28.8-26.5-30.3C58.2,57.2,59.8,57.2,59.8,57.2z"/>
<g opacity="0.5">
	<path fill="#C0F16A" d="M85.4,86.9c-1.3-1.2-2.6-2.5-3.9-3.7c-0.6-0.6-1.3-1.2-1.9-1.9c-0.6-0.7-1.1-1.4-1.6-2.1
		c0.8,0.5,1.5,1.1,2.1,1.8c0.7,0.6,1.2,1.3,1.8,2C83.2,84.2,84.4,85.5,85.4,86.9C85.5,86.9,85.5,86.9,85.4,86.9
		C85.5,86.9,85.5,86.9,85.4,86.9z M80,77.9c-1.6-1.4-3.1-2.7-4.6-4.1c-0.8-0.7-1.6-1.3-2.3-2.1c-0.7-0.7-1.4-1.5-2-2.3v-0.1
		c0.9,0.6,1.7,1.3,2.5,1.9c0.8,0.7,1.4,1.5,2.2,2.2C77.3,74.9,78.7,76.4,80,77.9C80.1,77.9,80.1,77.9,80,77.9
		C80.1,77.9,80.1,77.9,80,77.9z M70.1,67.3c-1.3-1.1-2.6-2.1-3.8-3.2c-0.6-0.5-1.3-1-1.9-1.6c-0.6-0.6-1.1-1.2-1.6-1.9v-0.1
		c0.8,0.4,1.4,1,2.1,1.5c0.6,0.5,1.2,1.2,1.8,1.7C67.8,64.9,69,66.1,70.1,67.3C70.2,67.3,70.2,67.3,70.1,67.3z M75.6,76.5
		c-0.7-0.6-1.4-1.2-2-1.9c-0.3-0.3-0.7-0.6-1-1c-0.3-0.4-0.5-0.7-0.6-1.2c0.5,0.2,0.8,0.5,1.2,0.8c0.3,0.3,0.6,0.7,0.9,1
		C74.6,75.1,75.2,75.8,75.6,76.5C75.7,76.5,75.7,76.5,75.6,76.5C75.7,76.6,75.6,76.6,75.6,76.5z M95.5,74.8c-1.5-0.7-3-1.4-4.4-2.1
		c-0.7-0.4-1.5-0.7-2.2-1.1c-0.7-0.4-1.4-0.9-2.1-1.5V70c0.8,0.2,1.5,0.5,2.3,0.9c0.7,0.3,1.4,0.8,2.1,1.2
		C92.7,73.1,94.2,73.9,95.5,74.8C95.6,74.8,95.6,74.8,95.5,74.8C95.6,74.8,95.6,74.8,95.5,74.8z M85.6,68.2
		c-1.4-0.5-2.7-0.9-4.1-1.4c-0.7-0.2-1.4-0.4-2-0.8c-0.7-0.3-1.3-0.7-2-1.1v-0.1c0.7,0.1,1.4,0.3,2.1,0.5c0.7,0.2,1.3,0.6,2,0.9
		C83,66.9,84.3,67.5,85.6,68.2C85.7,68.2,85.7,68.2,85.6,68.2C85.7,68.2,85.7,68.3,85.6,68.2z M79.4,67.8c-1.7-0.8-3.4-1.7-5.1-2.6
		c-0.8-0.4-1.7-0.8-2.5-1.3c-0.8-0.5-1.6-1-2.4-1.7v-0.1c0.9,0.3,1.8,0.7,2.6,1.1c0.9,0.4,1.7,1,2.5,1.5
		C76.1,65.7,77.8,66.7,79.4,67.8z M93.8,80.6c-1.8-1.1-3.6-2.2-5.3-3.3c-0.9-0.6-1.8-1.1-2.6-1.7c-0.8-0.6-1.7-1.3-2.4-2v-0.1
		c1,0.4,1.9,0.9,2.8,1.5c0.9,0.5,1.7,1.2,2.6,1.8C90.5,78,92.2,79.3,93.8,80.6C93.9,80.5,93.9,80.6,93.8,80.6z M86.8,80.7
		c-1.9-1.5-3.7-3-5.5-4.5c-0.9-0.8-1.9-1.5-2.7-2.3c-0.9-0.8-1.7-1.7-2.4-2.6v-0.1c1,0.7,2,1.4,2.9,2.1c0.9,0.8,1.8,1.6,2.6,2.4
		C83.4,77.3,85.1,79,86.8,80.7C86.8,80.6,86.8,80.7,86.8,80.7z M89.6,86.1l-3.3-3c-0.5-0.5-1.1-1-1.6-1.5s-0.9-1.1-1.3-1.7v-0.1
		c0.7,0.4,1.3,0.9,1.8,1.4c0.6,0.5,1,1.1,1.5,1.6C87.8,83.9,88.7,85,89.6,86.1C89.7,86.1,89.7,86.1,89.6,86.1
		C89.7,86.1,89.7,86.1,89.6,86.1z M79.8,70.7c-1.2-0.7-2.4-1.4-3.5-2.2c-0.6-0.4-1.2-0.7-1.7-1.1s-1.1-0.9-1.5-1.4v-0.1
		c0.7,0.2,1.3,0.6,1.9,0.9c0.6,0.4,1.1,0.8,1.7,1.2C77.7,68.9,78.8,69.8,79.8,70.7C79.9,70.7,79.9,70.7,79.8,70.7z M93,75.9
		l-4.5-2.4c-0.8-0.4-1.5-0.8-2.2-1.2c-0.7-0.5-1.4-1-2.1-1.6v-0.1c0.8,0.3,1.6,0.6,2.3,1c0.8,0.4,1.5,0.9,2.2,1.4
		C90.2,73.9,91.6,74.9,93,75.9C93,75.9,93.1,75.9,93,75.9z"/>
</g>
<path fill="#63C902" d="M57.7,59.4c0,0,4.7,6,9.9,14.5c6.2,10.2,13,19.6,8.6,23.7c-4.4,4.1-13.5,6.8-16.2,2.7
	c-2.6-4.1-3.6-38.2-3.6-40.1C56.4,58.4,57.7,59.4,57.7,59.4z"/>
<g opacity="0.5">
	<path fill="#C0F16A" d="M60.9,98.5c-0.3-1.8-0.6-3.5-0.9-5.3c-0.1-0.9-0.4-1.8-0.4-2.6c-0.1-0.9-0.1-1.8,0-2.6
		c0.3,0.9,0.5,1.8,0.7,2.7c0.2,0.9,0.2,1.8,0.3,2.6C60.7,95,60.9,96.7,60.9,98.5C61,98.5,61,98.5,60.9,98.5z M61.9,88
		c-0.5-2-0.9-4-1.3-6.1c-0.2-1-0.5-2-0.6-3s-0.2-2-0.2-3.1c0.4,1,0.6,2,0.9,3c0.2,1,0.3,2,0.5,3C61.4,84,61.7,86,61.9,88
		C61.9,88.1,61.9,88.1,61.9,88C61.9,88.1,61.9,88.1,61.9,88z M60.1,73.6c-0.4-1.6-0.8-3.2-1.2-4.9l-0.6-2.4
		c-0.1-0.8-0.2-1.6-0.2-2.5c0.4,0.8,0.6,1.6,0.8,2.4c0.3,0.8,0.4,1.7,0.5,2.5C59.7,70.3,59.9,72,60.1,73.6
		C60.2,73.6,60.1,73.7,60.1,73.6z M59.1,84.3c-0.2-0.9-0.4-1.8-0.5-2.7c-0.1-0.5-0.2-0.9-0.2-1.4c0-0.4,0-0.9,0.2-1.3h0.1
		c0.2,0.5,0.4,0.9,0.5,1.4c0.1,0.5,0.1,0.9,0.1,1.3C59.2,82.5,59.2,83.4,59.1,84.3C59.2,84.4,59.1,84.4,59.1,84.3
		C59.1,84.4,59.1,84.4,59.1,84.3z M76.2,94.7c-0.8-1.4-1.6-2.9-2.4-4.3c-0.4-0.7-0.8-1.4-1.1-2.2c-0.3-0.8-0.6-1.5-0.8-2.4v-0.1
		c0.5,0.6,0.9,1.3,1.3,2c0.4,0.7,0.7,1.5,1,2.3C75,91.6,75.6,93.1,76.2,94.7C76.3,94.7,76.3,94.7,76.2,94.7z M72.1,83.5
		c-0.8-1.2-1.7-2.4-2.5-3.5c-0.4-0.6-0.9-1.2-1.2-1.8c-0.3-0.7-0.7-1.3-0.9-2.1V76c0.5,0.5,1,1.1,1.4,1.6c0.4,0.6,0.7,1.3,1.1,1.9
		C70.7,80.9,71.4,82.2,72.1,83.5C72.1,83.6,72.1,83.5,72.1,83.5z M67.2,79.5c-0.9-1.7-1.8-3.4-2.6-5.1c-0.4-0.9-0.9-1.7-1.3-2.6
		C63,70.9,62.7,70,62.4,69v-0.1c0.6,0.8,1,1.6,1.5,2.5c0.4,0.8,0.8,1.8,1.1,2.6C65.9,75.9,66.6,77.7,67.2,79.5
		C67.3,79.5,67.3,79.5,67.2,79.5C67.3,79.5,67.3,79.5,67.2,79.5z M71.4,98.3c-0.8-1.9-1.6-3.9-2.4-5.8c-0.4-1-0.8-1.9-1.1-2.9
		s-0.6-2-0.8-3.1c0.5,0.9,1,1.9,1.4,2.8c0.4,1,0.7,2,1,3C70.2,94.3,70.9,96.3,71.4,98.3C71.5,98.3,71.5,98.3,71.4,98.3z M65.7,94.2
		l-1.8-6.9c-0.3-1.2-0.6-2.3-0.8-3.5c-0.2-1.2-0.4-2.3-0.5-3.5c0.4,1.1,0.8,2.3,1.1,3.4c0.3,1.2,0.5,2.3,0.7,3.5
		C64.9,89.5,65.3,91.9,65.7,94.2C65.7,94.2,65.7,94.3,65.7,94.2C65.7,94.3,65.7,94.2,65.7,94.2z M64.8,100.3
		c-0.3-1.4-0.7-2.9-0.9-4.3c-0.1-0.7-0.4-1.4-0.4-2.2c-0.1-0.7-0.1-1.5,0-2.2c0.3,0.7,0.5,1.4,0.7,2.2c0.2,0.7,0.2,1.5,0.3,2.2
		C64.6,97.4,64.7,98.9,64.8,100.3C64.9,100.4,64.8,100.4,64.8,100.3C64.8,100.4,64.8,100.4,64.8,100.3z M65.9,82.1
		c-0.5-1.3-1.1-2.5-1.6-3.8c-0.3-0.6-0.6-1.3-0.7-1.9c-0.2-0.7-0.3-1.4-0.4-2.1c0.4,0.6,0.7,1.2,1,1.8c0.3,0.6,0.4,1.3,0.6,2
		C65.2,79.4,65.6,80.7,65.9,82.1C66,82.1,66,82.1,65.9,82.1z M73.5,94c-0.8-1.5-1.5-3.1-2.2-4.6c-0.4-0.8-0.8-1.5-1.1-2.3
		c-0.3-0.8-0.6-1.6-0.7-2.5v-0.1c0.5,0.7,0.9,1.4,1.3,2.2c0.4,0.8,0.6,1.6,1,2.4C72.4,90.8,73,92.4,73.5,94
		C73.6,94,73.6,94.1,73.5,94C73.5,94.1,73.5,94.1,73.5,94z"/>
</g>
<g>
	<path fill="#63C902" d="M56.1,50.3c0,0-0.3-7.6,0.5-17.6c1-11.9,1.1-23.5,7-24.2c5.9-0.7,15,2.5,14.7,7.3
		c-0.3,4.8-19.6,33-20.7,34.5C56.5,51.8,56.1,50.3,56.1,50.3z"/>
	<g opacity="0.5">
		<path fill="#C0F16A" d="M76.5,16.7l-2.4,4.8l-1.2,2.4c-0.5,0.7-0.9,1.5-1.5,2.1h-0.1c0.3-0.9,0.6-1.7,1-2.5
			c0.4-0.8,0.9-1.5,1.3-2.3C74.6,19.7,75.5,18.2,76.5,16.7z M69.6,24.6c-0.8,1.9-1.7,3.8-2.5,5.7c-0.4,0.9-0.8,1.9-1.3,2.8
			c-0.5,0.9-1,1.8-1.6,2.6h-0.1c0.3-1,0.7-2,1.1-2.9c0.4-1,0.9-1.8,1.4-2.7C67.6,28.2,68.6,26.4,69.6,24.6z M62.5,37.3
			c-0.6,1.6-1.2,3.1-1.9,4.6c-0.3,0.8-0.6,1.6-1,2.3c-0.4,0.7-0.8,1.4-1.3,2.1h-0.1c0.2-0.9,0.5-1.6,0.8-2.4
			c0.3-0.8,0.7-1.5,1.1-2.2C60.9,40.2,61.7,38.8,62.5,37.3C62.6,37.3,62.6,37.3,62.5,37.3z M69.7,29.3c-0.4,0.8-0.8,1.7-1.2,2.5
			c-0.2,0.4-0.4,0.9-0.6,1.2c-0.3,0.4-0.5,0.7-0.9,1h-0.1c0.1-0.5,0.2-1,0.4-1.4c0.2-0.4,0.5-0.8,0.7-1.1
			C68.6,30.7,69.1,29.9,69.7,29.3C69.6,29.2,69.6,29.2,69.7,29.3C69.7,29.2,69.7,29.2,69.7,29.3z M61.9,10.8
			c-0.2,1.6-0.4,3.2-0.6,4.9c-0.1,0.8-0.2,1.6-0.4,2.4c-0.2,0.8-0.4,1.6-0.8,2.4H60c0-0.8,0-1.6,0.1-2.4c0.1-0.8,0.3-1.6,0.5-2.4
			C61.1,14,61.5,12.4,61.9,10.8z M58.7,22.3c0,1.4,0,2.9-0.1,4.3c0,0.7,0,1.4-0.1,2.2c-0.1,0.7-0.2,1.5-0.5,2.2h-0.1
			c-0.1-0.7-0.2-1.4-0.2-2.1s0.2-1.5,0.2-2.2C58.2,25.2,58.4,23.7,58.7,22.3C58.6,22.2,58.7,22.2,58.7,22.3
			C58.7,22.2,58.7,22.2,58.7,22.3z M60.2,28.4l-0.9,5.7c-0.1,0.9-0.2,1.8-0.5,2.8c-0.2,0.9-0.5,1.9-0.9,2.8h-0.1
			c0-1,0.1-1.9,0.3-2.8c0.1-0.9,0.4-1.9,0.6-2.8C59.2,32.1,59.7,30.2,60.2,28.4C60.2,28.3,60.2,28.3,60.2,28.4
			C60.2,28.3,60.2,28.3,60.2,28.4z M67.9,10.7c-0.5,2-1,4.1-1.5,6.1c-0.3,1-0.5,2-0.8,3c-0.3,1-0.7,2-1.2,2.9h-0.1
			c0.1-1.1,0.3-2.1,0.6-3.1c0.2-1,0.6-2,0.9-3C66.5,14.7,67.2,12.7,67.9,10.7z M70.2,17.4c-0.9,2.2-1.7,4.4-2.6,6.6
			c-0.4,1.1-0.9,2.2-1.4,3.3c-0.5,1.1-1.1,2.1-1.7,3.1h-0.1c0.3-1.2,0.7-2.3,1.2-3.4c0.4-1.1,1-2.2,1.5-3.2
			C68,21.6,69.1,19.5,70.2,17.4C70.1,17.3,70.1,17.3,70.2,17.4C70.2,17.3,70.2,17.4,70.2,17.4z M74.5,13c-0.6,1.4-1.2,2.7-1.8,4.1
			c-0.3,0.7-0.6,1.4-0.9,2c-0.4,0.6-0.8,1.2-1.3,1.8h-0.1c0.2-0.8,0.4-1.5,0.7-2.1c0.3-0.7,0.7-1.3,1.1-1.9
			C73,15.5,73.7,14.2,74.5,13C74.4,12.9,74.5,12.9,74.5,13C74.5,12.9,74.5,13,74.5,13z M62.8,27.1c-0.3,1.3-0.6,2.7-1,4
			c-0.2,0.7-0.3,1.3-0.5,2c-0.2,0.6-0.5,1.3-0.9,1.9h-0.1c0-0.7,0.1-1.4,0.3-2.1c0.2-0.7,0.4-1.3,0.7-2
			C61.8,29.6,62.3,28.3,62.8,27.1C62.8,27,62.8,27,62.8,27.1C62.8,27,62.8,27,62.8,27.1z M63.7,12.9c-0.3,1.7-0.6,3.4-0.9,5
			c-0.2,0.8-0.3,1.7-0.5,2.5s-0.5,1.7-0.9,2.5h-0.1c0-0.9,0.1-1.7,0.3-2.5c0.1-0.8,0.4-1.7,0.6-2.5C62.7,16.2,63.2,14.6,63.7,12.9z"
			/>
	</g>
</g>
<g>
	<path fill="#63C902" d="M58.8,51.6c0,0,4.3-6.3,10.8-13.9c7.8-9.1,14.7-18.4,19.9-15.4c5.2,2.9,10.6,10.8,7.6,14.6
		c-3,3.7-35.3,15-37.1,15.6C58.3,53.1,58.8,51.6,58.8,51.6z"/>
	<g opacity="0.5">
		<path fill="#C0F16A" d="M95.1,36.6c-1.6,0.9-3.2,1.7-4.7,2.5c-0.8,0.4-1.6,0.9-2.4,1.2s-1.6,0.6-2.5,0.8c0.8-0.6,1.5-1,2.3-1.4
			c0.8-0.4,1.6-0.7,2.4-1.1C91.8,37.8,93.4,37.1,95.1,36.6C95.1,36.5,95.1,36.5,95.1,36.6C95.1,36.5,95.1,36.5,95.1,36.6z
			 M84.8,38.8c-1.8,1.1-3.6,2.1-5.4,3.1c-0.9,0.5-1.8,1.1-2.7,1.5c-0.9,0.4-1.9,0.8-2.8,1.1c0.8-0.7,1.7-1.2,2.6-1.7
			s1.8-0.9,2.8-1.4C81.1,40.5,82.9,39.6,84.8,38.8z M71.6,45c-1.4,0.9-2.8,1.8-4.3,2.6c-0.7,0.4-1.4,0.9-2.2,1.3
			c-0.7,0.4-1.5,0.7-2.3,0.9c0.7-0.6,1.3-1.1,2.1-1.5c0.7-0.5,1.5-0.8,2.2-1.1C68.6,46.3,70.1,45.6,71.6,45
			C71.6,44.9,71.6,44.9,71.6,45C71.7,44.9,71.6,44.9,71.6,45z M82.1,42.6c-0.8,0.5-1.6,0.9-2.4,1.3c-0.4,0.2-0.8,0.5-1.2,0.6
			s-0.9,0.2-1.3,0.2c0.4-0.4,0.8-0.6,1.2-0.9c0.4-0.2,0.8-0.3,1.3-0.5C80.4,43.1,81.3,42.8,82.1,42.6C82.1,42.5,82.2,42.5,82.1,42.6
			C82.2,42.6,82.2,42.6,82.1,42.6z M86.8,23.2c-1.1,1.2-2.2,2.4-3.4,3.6c-0.6,0.6-1.1,1.2-1.7,1.7c-0.6,0.5-1.3,1.1-2,1.5h-0.1
			c0.4-0.7,1-1.3,1.5-1.9c0.6-0.6,1.2-1.1,1.8-1.7C84.2,25.3,85.4,24.2,86.8,23.2C86.7,23.1,86.8,23.1,86.8,23.2
			C86.8,23.1,86.8,23.1,86.8,23.2z M77.4,30.5c-0.9,1.2-1.7,2.3-2.6,3.4c-0.4,0.6-0.8,1.2-1.4,1.7c-0.5,0.5-1.1,1-1.7,1.5h-0.1
			c0.3-0.7,0.7-1.2,1.1-1.8c0.4-0.6,1-1.1,1.5-1.6C75.3,32.6,76.3,31.5,77.4,30.5C77.4,30.5,77.4,30.4,77.4,30.5z M75,36.3
			c-1.3,1.4-2.7,2.7-4.1,4.1c-0.7,0.7-1.3,1.4-2.1,2c-0.7,0.6-1.5,1.2-2.4,1.7h-0.1c1.2-1.6,2.5-2.9,4.1-4.1
			C72,38.8,73.5,37.5,75,36.3z M91.7,26.6c-1.6,1.4-3.2,2.7-4.8,4c-0.8,0.7-1.6,1.4-2.4,2c-0.9,0.6-1.7,1.2-2.7,1.7h-0.1
			c0.7-0.8,1.5-1.5,2.3-2.2c0.8-0.7,1.7-1.2,2.5-1.9C88.2,29,89.9,27.8,91.7,26.6C91.6,26.5,91.7,26.5,91.7,26.6z M89.5,33.3
			c-2,1.3-4,2.6-6.1,3.8c-1,0.6-2,1.3-3,1.9c-1,0.6-2.1,1.1-3.2,1.5h-0.1c0.9-0.8,1.9-1.4,2.9-2.1c1-0.6,2.1-1.2,3.1-1.7
			C85.3,35.5,87.4,34.4,89.5,33.3C89.5,33.3,89.6,33.3,89.5,33.3C89.6,33.3,89.6,33.3,89.5,33.3z M95.6,32.3
			c-1.3,0.8-2.6,1.5-3.8,2.2c-0.6,0.4-1.3,0.8-1.9,1.1c-0.7,0.3-1.4,0.6-2.1,0.7c0.6-0.5,1.2-0.9,1.9-1.3c0.6-0.4,1.3-0.6,2-0.9
			C92.9,33.4,94.3,32.8,95.6,32.3C95.6,32.2,95.7,32.2,95.6,32.3C95.7,32.3,95.6,32.3,95.6,32.3z M77.9,36.8c-1,0.9-2.1,1.8-3.2,2.7
			c-0.5,0.4-1,0.9-1.6,1.3c-0.6,0.4-1.2,0.7-1.8,1h-0.1c0.4-0.6,0.9-1,1.5-1.5c0.5-0.5,1.1-0.8,1.7-1.2
			C75.6,38.3,76.7,37.5,77.9,36.8z M87,25.9c-1.2,1.2-2.5,2.4-3.7,3.5c-0.6,0.6-1.2,1.2-1.9,1.7c-0.7,0.5-1.4,1-2.2,1.5h-0.1
			c0.5-0.7,1.1-1.3,1.7-1.9c0.6-0.6,1.3-1.1,2-1.6C84.2,28,85.6,26.9,87,25.9C86.9,25.9,87,25.9,87,25.9z"/>
	</g>
</g>
<path fill="#2D9402" d="M56,0C25.5,0,0.8,24.7,0.8,55.2s24.7,55.2,55.2,55.2"/>
<path fill="#C0F16A" d="M56,3.2C27.4,3.2,4.1,26.4,4.1,55.1C4.1,83.7,27.3,107,56,107"/>
<path fill="#63C902" d="M50.2,56.2c0,0-7.1,2.6-16.9,5C21.7,64,10.6,67.5,8.1,62.1s-2.3-15,2.3-16.2c4.7-1.3,37.5,8.3,39.3,8.9
	C51.5,55.3,50.2,56.2,50.2,56.2z"/>
<g opacity="0.5">
	<path fill="#C0F16A" d="M12,47.3c1.8,0.2,3.6,0.5,5.3,0.7c0.9,0.1,1.8,0.2,2.6,0.4c0.9,0.2,1.7,0.4,2.5,0.8c-0.9,0-1.8-0.1-2.7-0.2
		c-0.9-0.1-1.7-0.4-2.6-0.5C15.4,48.2,13.7,47.8,12,47.3C11.9,47.4,11.9,47.3,12,47.3C11.9,47.3,11.9,47.3,12,47.3z M21.6,51.4
		c2.1,0.2,4.1,0.4,6.2,0.6c1,0.1,2.1,0.2,3.1,0.4s2,0.4,3,0.7c-1.1,0-2.1,0-3.1-0.1s-2-0.3-3-0.5C25.7,52.2,23.6,51.8,21.6,51.4
		C21.6,51.5,21.6,51.4,21.6,51.4z M35.9,54.1c1.7,0.1,3.3,0.2,5,0.3c0.8,0.1,1.7,0.1,2.5,0.2s1.6,0.3,2.4,0.6
		c-0.9,0.1-1.7,0.1-2.5,0c-0.8,0-1.6-0.2-2.5-0.4C39.2,54.7,37.5,54.5,35.9,54.1C35.9,54.2,35.9,54.2,35.9,54.1z M26,49.9l2.7,0.3
		c0.5,0.1,0.9,0.1,1.4,0.2c0.4,0.1,0.8,0.3,1.2,0.6v0.1c-0.5,0.1-1,0.1-1.4,0c-0.5,0-0.9-0.2-1.3-0.3C27.7,50.5,26.8,50.2,26,49.9
		C26,50,25.9,49.9,26,49.9z M10.9,63l4.8-0.9c0.8-0.1,1.6-0.3,2.4-0.4c0.8-0.1,1.7-0.1,2.5,0c-0.8,0.3-1.6,0.5-2.4,0.7
		c-0.8,0.2-1.6,0.2-2.5,0.3C14.2,62.8,12.6,62.9,10.9,63C10.9,63.1,10.9,63.1,10.9,63z M22.8,62.5c1.4-0.4,2.7-0.9,4.1-1.3
		c0.7-0.2,1.4-0.5,2.1-0.6s1.5-0.2,2.3-0.2c0,0,0.1,0,0,0c-0.6,0.4-1.3,0.6-2,0.8s-1.4,0.3-2.2,0.5C25.7,62,24.3,62.3,22.8,62.5
		C22.8,62.6,22.8,62.5,22.8,62.5z M28.1,59.1l5.7-0.9c0.9-0.1,1.9-0.3,2.8-0.4c1-0.1,1.9-0.1,2.9,0c-0.9,0.3-1.8,0.5-2.8,0.7
		c-0.9,0.2-1.9,0.2-2.9,0.3C32,58.9,30.1,59.1,28.1,59.1C28.1,59.2,28.1,59.2,28.1,59.1C28.1,59.2,28.1,59.1,28.1,59.1z M8.9,57.3
		c2.1-0.2,4.2-0.3,6.2-0.5c1-0.1,2.1-0.2,3.1-0.2s2.1,0,3.2,0.2c-1,0.2-2.1,0.3-3.1,0.4c-1,0.1-2.1,0-3.1,0
		C13.1,57.4,11,57.4,8.9,57.3C8.9,57.4,8.9,57.4,8.9,57.3C8.9,57.4,8.9,57.3,8.9,57.3z M14.6,53.1c2.4,0.1,4.8,0.3,7.1,0.4
		c1.2,0.1,2.4,0.1,3.6,0.3s2.3,0.3,3.5,0.6c-1.2,0.1-2.4,0-3.6,0c-1.2-0.1-2.4-0.3-3.5-0.4C19.3,53.8,16.9,53.5,14.6,53.1
		C14.5,53.2,14.5,53.2,14.6,53.1C14.5,53.1,14.6,53.1,14.6,53.1z M9,50.4c1.5,0.1,3,0.3,4.4,0.4c0.7,0.1,1.5,0.1,2.2,0.3
		c0.7,0.2,1.4,0.3,2.1,0.6v0.1c-0.8,0.1-1.5,0-2.3,0c-0.7-0.1-1.4-0.3-2.2-0.4C11.9,51.1,10.4,50.8,9,50.4C9,50.5,9,50.5,9,50.4z
		 M26.1,57.1c1.4-0.1,2.7-0.2,4.1-0.3c0.7,0,1.4-0.1,2.1-0.1c0.7,0,1.4,0.1,2.1,0.3c-0.7,0.2-1.4,0.3-2,0.4c-0.7,0.1-1.4,0-2.1,0
		C28.8,57.2,27.5,57.2,26.1,57.1C26.1,57.1,26,57.1,26.1,57.1C26,57.1,26.1,57.1,26.1,57.1z M12.4,60.6c1.7-0.3,3.4-0.5,5.1-0.7
		c0.8-0.1,1.7-0.3,2.5-0.3c0.9,0,1.7,0,2.6,0.1c-0.8,0.3-1.7,0.4-2.5,0.6c-0.8,0.1-1.7,0.1-2.6,0.2C15.8,60.6,14.1,60.6,12.4,60.6
		C12.3,60.7,12.3,60.7,12.4,60.6C12.3,60.7,12.3,60.6,12.4,60.6z"/>
</g>
<path fill="#63C902" d="M50.6,53.2c0,0-7.3-2.1-16.6-5.9c-11.1-4.6-22-8.2-20.9-14.1c1.1-5.9,6.9-13.5,11.5-11.8S50,50.2,51.1,51.7
	C52.2,53.2,50.6,53.2,50.6,53.2z"/>
<g opacity="0.5">
	<path fill="#C0F16A" d="M25,23.5c1.3,1.2,2.6,2.5,3.9,3.7c0.6,0.6,1.3,1.2,1.9,1.9c0.6,0.7,1.1,1.4,1.6,2.1
		c-0.8-0.5-1.5-1.1-2.1-1.8c-0.7-0.6-1.2-1.3-1.8-2C27.2,26.2,26,24.9,25,23.5C24.9,23.5,24.9,23.5,25,23.5
		C24.9,23.5,24.9,23.5,25,23.5z M30.4,32.5c1.6,1.4,3.1,2.7,4.6,4.1c0.8,0.7,1.6,1.3,2.3,2.1c0.7,0.7,1.4,1.5,2,2.3v0.1
		c-0.9-0.6-1.7-1.3-2.5-1.9c-0.8-0.7-1.4-1.5-2.2-2.2C33.1,35.5,31.7,34,30.4,32.5C30.3,32.5,30.3,32.5,30.4,32.5
		C30.3,32.5,30.3,32.5,30.4,32.5z M40.3,43.1c1.3,1.1,2.6,2.1,3.8,3.2c0.6,0.5,1.3,1,1.9,1.6c0.6,0.6,1.1,1.2,1.6,1.9v0.1
		c-0.8-0.4-1.4-1-2.1-1.5c-0.6-0.5-1.2-1.2-1.8-1.7C42.6,45.5,41.4,44.3,40.3,43.1C40.2,43.1,40.2,43.1,40.3,43.1z M34.8,33.9
		c0.7,0.6,1.4,1.2,2,1.9c0.3,0.3,0.7,0.6,1,1s0.5,0.7,0.6,1.2c-0.5-0.2-0.8-0.5-1.2-0.8c-0.3-0.3-0.6-0.7-0.9-1
		C35.8,35.3,35.2,34.6,34.8,33.9C34.7,33.9,34.7,33.9,34.8,33.9C34.7,33.8,34.8,33.8,34.8,33.9z M14.9,35.6c1.5,0.7,3,1.4,4.4,2.1
		c0.7,0.4,1.5,0.7,2.2,1.1s1.4,0.9,2.1,1.5v0.1c-0.8-0.2-1.5-0.5-2.3-0.9c-0.7-0.3-1.4-0.8-2.1-1.2C17.7,37.3,16.2,36.5,14.9,35.6
		C14.8,35.6,14.8,35.6,14.9,35.6C14.8,35.6,14.8,35.6,14.9,35.6z M24.8,42.2c1.4,0.5,2.7,0.9,4.1,1.4c0.7,0.2,1.4,0.4,2,0.8
		c0.7,0.3,1.3,0.7,2,1.1v0.1c-0.7-0.1-1.4-0.3-2.1-0.5s-1.3-0.6-2-0.9C27.4,43.5,26.1,42.9,24.8,42.2C24.7,42.2,24.7,42.2,24.8,42.2
		C24.7,42.2,24.7,42.1,24.8,42.2z M31,42.6c1.7,0.8,3.4,1.7,5.1,2.6c0.8,0.4,1.7,0.8,2.5,1.3s1.6,1,2.4,1.7v0.1
		c-0.9-0.3-1.8-0.7-2.6-1.1c-0.9-0.4-1.7-1-2.5-1.5C34.3,44.7,32.6,43.7,31,42.6z M16.6,29.8c1.8,1.1,3.6,2.2,5.3,3.3
		c0.9,0.6,1.8,1.1,2.6,1.7c0.8,0.6,1.7,1.3,2.4,2v0.1c-1-0.4-1.9-0.9-2.8-1.5c-0.9-0.5-1.7-1.2-2.6-1.8
		C19.9,32.4,18.2,31.1,16.6,29.8C16.5,29.9,16.5,29.8,16.6,29.8z M23.6,29.7c1.9,1.5,3.7,3,5.5,4.5c0.9,0.8,1.9,1.5,2.7,2.3
		c0.9,0.8,1.7,1.7,2.4,2.6v0.1c-1-0.7-2-1.4-2.9-2.1c-0.9-0.8-1.8-1.6-2.6-2.4C27,33.1,25.3,31.4,23.6,29.7
		C23.6,29.8,23.6,29.7,23.6,29.7z M20.8,24.3l3.3,3c0.5,0.5,1.1,1,1.6,1.5s0.9,1.1,1.3,1.7v0.1c-0.7-0.4-1.3-0.9-1.8-1.4
		c-0.6-0.5-1-1.1-1.5-1.6C22.6,26.5,21.7,25.4,20.8,24.3C20.7,24.3,20.7,24.3,20.8,24.3C20.7,24.3,20.7,24.3,20.8,24.3z M30.6,39.7
		c1.2,0.7,2.4,1.4,3.5,2.2c0.6,0.4,1.2,0.7,1.7,1.1s1.1,0.9,1.5,1.4v0.1c-0.7-0.2-1.3-0.6-1.9-0.9c-0.6-0.4-1.1-0.8-1.7-1.2
		C32.7,41.5,31.6,40.6,30.6,39.7C30.5,39.7,30.5,39.7,30.6,39.7z M17.4,34.5l4.5,2.4c0.8,0.4,1.5,0.8,2.2,1.2c0.7,0.5,1.4,1,2.1,1.6
		v0.1c-0.8-0.3-1.6-0.6-2.3-1c-0.8-0.4-1.5-0.9-2.2-1.4C20.2,36.5,18.8,35.5,17.4,34.5C17.4,34.5,17.3,34.5,17.4,34.5z"/>
</g>
<path fill="#63C902" d="M52.7,51c0,0-4.7-6-9.9-14.5c-6.2-10.2-13-19.6-8.6-23.7c4.4-4.1,13.5-6.8,16.2-2.7C53,14.2,54,48.3,54,50.2
	C54,52,52.7,51,52.7,51z"/>
<g opacity="0.5">
	<path fill="#C0F16A" d="M49.5,11.9c0.3,1.8,0.6,3.5,0.9,5.3c0.1,0.9,0.4,1.8,0.4,2.6c0.1,0.9,0.1,1.8,0,2.6
		c-0.3-0.9-0.5-1.8-0.7-2.7c-0.2-0.9-0.2-1.8-0.3-2.6C49.7,15.4,49.5,13.7,49.5,11.9C49.4,11.9,49.4,11.9,49.5,11.9z M48.5,22.4
		c0.5,2,0.9,4,1.3,6.1c0.2,1,0.5,2,0.6,3c0.1,1,0.2,2,0.2,3.1c-0.4-1-0.6-2-0.9-3c-0.2-1-0.3-2-0.5-3C49,26.4,48.7,24.4,48.5,22.4
		C48.5,22.3,48.5,22.3,48.5,22.4C48.5,22.3,48.5,22.3,48.5,22.4z M50.3,36.8c0.4,1.6,0.8,3.2,1.2,4.9l0.6,2.4
		c0.1,0.8,0.2,1.6,0.2,2.5c-0.4-0.8-0.6-1.6-0.8-2.4c-0.3-0.8-0.4-1.7-0.5-2.5C50.7,40.1,50.5,38.4,50.3,36.8
		C50.2,36.8,50.3,36.7,50.3,36.8z M51.3,26.1c0.2,0.9,0.4,1.8,0.5,2.7c0.1,0.5,0.2,0.9,0.2,1.4c0,0.4,0,0.9-0.2,1.3h-0.1
		c-0.2-0.5-0.4-0.9-0.5-1.4c-0.1-0.5-0.1-0.9-0.1-1.3C51.2,27.9,51.2,27,51.3,26.1C51.2,26,51.3,26,51.3,26.1
		C51.3,26,51.3,26,51.3,26.1z M34.2,15.7c0.8,1.4,1.6,2.9,2.4,4.3c0.4,0.7,0.8,1.4,1.1,2.2c0.3,0.8,0.6,1.5,0.8,2.4v0.1
		c-0.5-0.6-0.9-1.3-1.3-2c-0.4-0.7-0.7-1.5-1-2.3C35.4,18.8,34.8,17.3,34.2,15.7C34.1,15.7,34.1,15.7,34.2,15.7z M38.3,26.9
		c0.8,1.2,1.7,2.4,2.5,3.5c0.4,0.6,0.9,1.2,1.2,1.8c0.3,0.7,0.7,1.3,0.9,2.1v0.1c-0.5-0.5-1-1.1-1.4-1.6c-0.4-0.6-0.7-1.3-1.1-1.9
		C39.7,29.5,39,28.2,38.3,26.9C38.3,26.8,38.3,26.9,38.3,26.9z M43.2,30.9c0.9,1.7,1.8,3.4,2.6,5.1c0.4,0.9,0.9,1.7,1.3,2.6
		c0.3,0.9,0.6,1.8,0.9,2.8v0.1c-0.6-0.8-1-1.6-1.5-2.5c-0.4-0.8-0.8-1.8-1.1-2.6C44.5,34.5,43.8,32.7,43.2,30.9
		C43.1,30.9,43.1,30.9,43.2,30.9C43.1,30.9,43.1,30.9,43.2,30.9z M39,12.1c0.8,1.9,1.6,3.9,2.4,5.8c0.4,1,0.8,1.9,1.1,2.9
		s0.6,2,0.8,3.1c-0.5-0.9-1-1.9-1.4-2.8c-0.4-1-0.7-2-1-3C40.2,16.1,39.5,14.1,39,12.1C38.9,12.1,38.9,12.1,39,12.1z M44.7,16.2
		l1.8,6.9c0.3,1.2,0.6,2.3,0.8,3.5c0.2,1.2,0.4,2.3,0.5,3.5c-0.4-1.1-0.8-2.3-1.1-3.4c-0.3-1.2-0.5-2.3-0.7-3.5
		C45.5,20.9,45.1,18.5,44.7,16.2C44.7,16.2,44.7,16.1,44.7,16.2C44.7,16.1,44.7,16.2,44.7,16.2z M45.6,10.1c0.3,1.4,0.7,2.9,0.9,4.3
		c0.1,0.7,0.4,1.4,0.4,2.2c0.1,0.7,0.1,1.5,0,2.2c-0.3-0.7-0.5-1.4-0.7-2.2c-0.2-0.7-0.2-1.5-0.3-2.2C45.8,13,45.7,11.5,45.6,10.1
		C45.5,10,45.6,10,45.6,10.1C45.6,10,45.6,10,45.6,10.1z M44.5,28.3c0.5,1.3,1.1,2.5,1.6,3.8c0.3,0.6,0.6,1.3,0.7,1.9
		c0.2,0.7,0.3,1.4,0.4,2.1c-0.4-0.6-0.7-1.2-1-1.8c-0.3-0.6-0.4-1.3-0.6-2C45.2,31,44.8,29.7,44.5,28.3
		C44.4,28.3,44.4,28.3,44.5,28.3z M36.9,16.4c0.8,1.5,1.5,3.1,2.2,4.6c0.4,0.8,0.8,1.5,1.1,2.3c0.3,0.8,0.6,1.6,0.7,2.5v0.1
		c-0.5-0.7-0.9-1.4-1.3-2.2c-0.4-0.8-0.6-1.6-1-2.4C38,19.6,37.4,18,36.9,16.4C36.8,16.4,36.8,16.3,36.9,16.4
		C36.9,16.3,36.9,16.3,36.9,16.4z"/>
</g>
<g>
	<path fill="#63C902" d="M54.3,60.1c0,0,0.3,7.6-0.5,17.6c-1,11.9-1.1,23.5-7,24.2c-5.9,0.7-15-2.5-14.7-7.3
		c0.3-4.8,19.6-33,20.7-34.5C53.9,58.6,54.3,60.1,54.3,60.1z"/>
	<g opacity="0.5">
		<path fill="#C0F16A" d="M33.9,93.7l2.4-4.8l1.2-2.4c0.5-0.7,0.9-1.5,1.5-2.1h0.1c-0.3,0.9-0.6,1.7-1,2.5c-0.4,0.8-0.9,1.5-1.3,2.3
			C35.8,90.7,34.9,92.2,33.9,93.7z M40.8,85.8c0.8-1.9,1.7-3.8,2.5-5.7c0.4-0.9,0.8-1.9,1.3-2.8c0.5-0.9,1-1.8,1.6-2.6h0.1
			c-0.3,1-0.7,2-1.1,2.9c-0.4,1-0.9,1.8-1.4,2.7C42.8,82.2,41.8,84,40.8,85.8z M47.9,73.1c0.6-1.6,1.2-3.1,1.9-4.6
			c0.3-0.8,0.6-1.6,1-2.3c0.4-0.7,0.8-1.4,1.3-2.1h0.1c-0.2,0.9-0.5,1.6-0.8,2.4c-0.3,0.8-0.7,1.5-1.1,2.2
			C49.5,70.2,48.7,71.6,47.9,73.1C47.8,73.1,47.8,73.1,47.9,73.1z M40.7,81.1c0.4-0.8,0.8-1.7,1.2-2.5c0.2-0.4,0.4-0.9,0.6-1.2
			c0.3-0.4,0.5-0.7,0.9-1h0.1c-0.1,0.5-0.2,1-0.4,1.4c-0.2,0.4-0.5,0.8-0.7,1.1C41.8,79.7,41.3,80.5,40.7,81.1
			C40.8,81.2,40.8,81.2,40.7,81.1C40.7,81.2,40.7,81.2,40.7,81.1z M48.5,99.6c0.2-1.6,0.4-3.2,0.6-4.9c0.1-0.8,0.2-1.6,0.4-2.4
			c0.2-0.8,0.4-1.6,0.8-2.4h0.1c0,0.8,0,1.6-0.1,2.4c-0.1,0.8-0.3,1.6-0.5,2.4C49.3,96.4,48.9,98,48.5,99.6z M51.7,88.1
			c0-1.4,0-2.9,0.1-4.3c0-0.7,0-1.4,0.1-2.2c0.1-0.7,0.2-1.5,0.5-2.2h0.1c0.1,0.7,0.2,1.4,0.2,2.1c0,0.7-0.2,1.5-0.2,2.2
			C52.2,85.2,52,86.7,51.7,88.1C51.8,88.2,51.7,88.2,51.7,88.1C51.7,88.2,51.7,88.2,51.7,88.1z M50.2,82l0.9-5.7
			c0.1-0.9,0.2-1.8,0.5-2.8c0.2-0.9,0.5-1.9,0.9-2.8h0.1c0,1-0.1,1.9-0.3,2.8c-0.1,0.9-0.4,1.9-0.6,2.8C51.2,78.3,50.7,80.2,50.2,82
			C50.2,82.1,50.2,82.1,50.2,82C50.2,82.1,50.2,82.1,50.2,82z M42.5,99.7c0.5-2,1-4.1,1.5-6.1c0.3-1,0.5-2,0.8-3
			c0.3-1,0.7-2,1.2-2.9h0.1c-0.1,1.1-0.3,2.1-0.6,3.1c-0.2,1-0.6,2-0.9,3C43.9,95.7,43.2,97.7,42.5,99.7z M40.2,93
			c0.9-2.2,1.7-4.4,2.6-6.6c0.4-1.1,0.9-2.2,1.4-3.3c0.5-1.1,1.1-2.1,1.7-3.1H46c-0.3,1.2-0.7,2.3-1.2,3.4c-0.4,1.1-1,2.2-1.5,3.2
			C42.4,88.8,41.3,90.9,40.2,93C40.3,93.1,40.3,93.1,40.2,93C40.2,93.1,40.2,93,40.2,93z M35.9,97.4c0.6-1.4,1.2-2.7,1.8-4.1
			c0.3-0.7,0.6-1.4,0.9-2c0.4-0.6,0.8-1.2,1.3-1.8H40c-0.2,0.8-0.4,1.5-0.7,2.1c-0.3,0.7-0.7,1.3-1.1,1.9
			C37.4,94.9,36.7,96.2,35.9,97.4C36,97.5,35.9,97.5,35.9,97.4C35.9,97.5,35.9,97.4,35.9,97.4z M47.6,83.3c0.3-1.3,0.6-2.7,1-4
			c0.2-0.7,0.3-1.3,0.5-2c0.2-0.6,0.5-1.3,0.9-1.9h0.1c0,0.7-0.1,1.4-0.3,2.1s-0.4,1.3-0.7,2C48.6,80.8,48.1,82.1,47.6,83.3
			C47.6,83.4,47.6,83.4,47.6,83.3C47.6,83.4,47.6,83.4,47.6,83.3z M46.7,97.5c0.3-1.7,0.6-3.4,0.9-5c0.2-0.8,0.3-1.7,0.5-2.5
			c0.2-0.8,0.5-1.7,0.9-2.5h0.1c0,0.9-0.1,1.7-0.3,2.5c-0.1,0.8-0.4,1.7-0.6,2.5C47.7,94.2,47.2,95.8,46.7,97.5z"/>
	</g>
</g>
<g>
	<path fill="#63C902" d="M51.6,58.8c0,0-4.3,6.3-10.8,13.9C33,81.8,26.1,91.1,20.9,88.1c-5.2-2.9-10.6-10.8-7.6-14.6
		c3-3.7,35.3-15,37.1-15.6C52.1,57.3,51.6,58.8,51.6,58.8z"/>
	<g opacity="0.5">
		<path fill="#C0F16A" d="M15.3,73.8c1.6-0.9,3.2-1.7,4.7-2.5c0.8-0.4,1.6-0.9,2.4-1.2c0.8-0.3,1.6-0.6,2.5-0.8
			c-0.8,0.6-1.5,1-2.3,1.4s-1.6,0.7-2.4,1.1C18.6,72.6,17,73.3,15.3,73.8C15.3,73.9,15.3,73.9,15.3,73.8
			C15.3,73.9,15.3,73.9,15.3,73.8z M25.6,71.6c1.8-1.1,3.6-2.1,5.4-3.1c0.9-0.5,1.8-1.1,2.7-1.5c0.9-0.4,1.9-0.8,2.8-1.1
			c-0.8,0.7-1.7,1.2-2.6,1.7c-0.9,0.5-1.8,0.9-2.8,1.4C29.3,69.9,27.5,70.8,25.6,71.6z M38.8,65.4c1.4-0.9,2.8-1.8,4.3-2.6
			c0.7-0.4,1.4-0.9,2.2-1.3c0.7-0.4,1.5-0.7,2.3-0.9c-0.7,0.6-1.3,1.1-2.1,1.5c-0.7,0.5-1.5,0.8-2.2,1.1
			C41.8,64.1,40.3,64.8,38.8,65.4C38.8,65.5,38.8,65.5,38.8,65.4C38.7,65.5,38.8,65.5,38.8,65.4z M28.3,67.8
			c0.8-0.5,1.6-0.9,2.4-1.3c0.4-0.2,0.8-0.5,1.2-0.6c0.4-0.1,0.9-0.2,1.3-0.2c-0.4,0.4-0.8,0.6-1.2,0.9c-0.4,0.2-0.8,0.3-1.3,0.5
			C30,67.3,29.1,67.6,28.3,67.8C28.3,67.9,28.2,67.9,28.3,67.8C28.2,67.8,28.2,67.8,28.3,67.8z M23.6,87.2c1.1-1.2,2.2-2.4,3.4-3.6
			c0.6-0.6,1.1-1.2,1.7-1.7s1.3-1.1,2-1.5h0.1c-0.4,0.7-1,1.3-1.5,1.9c-0.6,0.6-1.2,1.1-1.8,1.7C26.2,85.1,25,86.2,23.6,87.2
			C23.7,87.3,23.6,87.3,23.6,87.2C23.6,87.3,23.6,87.3,23.6,87.2z M33,79.9c0.9-1.2,1.7-2.3,2.6-3.4c0.4-0.6,0.8-1.2,1.4-1.7
			c0.5-0.5,1.1-1,1.7-1.5h0.1c-0.3,0.7-0.7,1.2-1.1,1.8c-0.4,0.6-1,1.1-1.5,1.6C35.1,77.8,34.1,78.9,33,79.9C33,79.9,33,80,33,79.9z
			 M35.4,74.1c1.3-1.4,2.7-2.7,4.1-4.1c0.7-0.7,1.3-1.4,2.1-2c0.7-0.6,1.5-1.2,2.4-1.7h0.1c-1.2,1.6-2.5,2.9-4.1,4.1
			C38.4,71.6,36.9,72.9,35.4,74.1z M18.7,83.8c1.6-1.4,3.2-2.7,4.8-4c0.8-0.7,1.6-1.4,2.4-2c0.9-0.6,1.7-1.2,2.7-1.7h0.1
			c-0.7,0.8-1.5,1.5-2.3,2.2s-1.7,1.2-2.5,1.9C22.2,81.4,20.5,82.6,18.7,83.8C18.8,83.9,18.7,83.9,18.7,83.8z M20.9,77.1
			c2-1.3,4-2.6,6.1-3.8c1-0.6,2-1.3,3-1.9s2.1-1.1,3.2-1.5h0.1c-0.9,0.8-1.9,1.4-2.9,2.1c-1,0.6-2.1,1.2-3.1,1.7
			C25.1,74.9,23,76,20.9,77.1C20.9,77.1,20.8,77.1,20.9,77.1C20.8,77.1,20.8,77.1,20.9,77.1z M14.8,78.1c1.3-0.8,2.6-1.5,3.8-2.2
			c0.6-0.4,1.3-0.8,1.9-1.1c0.7-0.3,1.4-0.6,2.1-0.7c-0.6,0.5-1.2,0.9-1.9,1.3c-0.6,0.4-1.3,0.6-2,0.9C17.5,77,16.1,77.6,14.8,78.1
			C14.8,78.2,14.7,78.2,14.8,78.1C14.7,78.1,14.8,78.1,14.8,78.1z M32.5,73.6c1-0.9,2.1-1.8,3.2-2.7c0.5-0.4,1-0.9,1.6-1.3
			c0.6-0.4,1.2-0.7,1.8-1h0.1c-0.4,0.6-0.9,1-1.5,1.5c-0.5,0.5-1.1,0.8-1.7,1.2C34.8,72.1,33.7,72.9,32.5,73.6z M23.4,84.5
			c1.2-1.2,2.5-2.4,3.7-3.5c0.6-0.6,1.2-1.2,1.9-1.7s1.4-1,2.2-1.5h0.1c-0.5,0.7-1.1,1.3-1.7,1.9s-1.3,1.1-2,1.6
			C26.2,82.4,24.8,83.5,23.4,84.5C23.5,84.5,23.4,84.5,23.4,84.5z"/>
	</g>
</g>
</svg>
