<svg xmlns="http://www.w3.org/2000/svg" viewBox="0 0 1283.8 263.5"><path fill="#B29600" d="M243.4 62.3l-37.2 80.8-136.9 61.5L109.6 60 184 11C132.6-11.3 70.5 1.2 32 46c-47.3 55-41.1 138.1 14 185.4 55.1 47.4 138.1 41.1 185.4-13.9 38.4-44.7 41.6-107.7 12-155.2z"/><path fill="#9B852D" d="M227.8 96.1l-21.7 47-136.8 61.5L109.6 60 153 31.4c-11.8-2.5-24.3-3-37-1-56 8.8-94.3 61.2-85.5 117.1s61.1 94.2 117.1 85.5 94.1-61.1 85.4-117c-1.1-7-2.8-13.6-5.2-19.9z"/><g fill="#907D2C"><path d="M125.7 49.3l11.3-7.5c-6.3-.4-12.7-.1-19.2.9-23.8 3.8-44 16.7-57.6 34.5C73.4 63.4 91 53.6 111.4 50.4c4.8-.7 9.6-1.1 14.3-1.1zM219.9 113.4l-5.7 12.3c3.9 25.1-3.1 49.4-17.4 68.2 18.6-19.6 28.3-47.2 23.9-76-.3-1.5-.5-3-.8-4.5z"/></g><path fill="#9B852D" d="M206.1 63.7c.2-.3.1-.7-.2-1-.3-.2-.7-.2-1 0L170 103.2l-.1.1c-.7.9-2 .9-2.9.2-.9-.7-.9-2-.2-2.9l.1-.1 33.9-41.4c.2-.3.1-.7-.2-1-.3-.2-.7-.2-1 0l-35.8 39.7-.1.1c-.7.9-2 .9-2.9.2l-.1-.1-.1-.1c-.9-.7-.9-2-.2-2.9l.1-.1 33.9-41.4c.2-.3.1-.7-.2-1s-.7-.2-1 0l-35.8 39.7-.1.1c-.7.9-2 .9-2.9.2-.9-.7-.9-2-.2-2.9l.1-.1L189.2 49c.2-.3.1-.7-.2-1-.3-.2-.7-.2-1 0 0 0-30.6 28.9-38.2 37.7-6.3 7.3-9.4 13.3-5.6 17.5 3.6 3.9 3.2 6.9-1.8 12.1 0 0-114.3 122.8-114.4 123.9l6.4 5.5 6.4 5.5c1.1-.3 105.4-131.6 105.4-131.6 4.5-5.7 7.3-6.5 11.7-3.5 4.7 3.2 10.1-.8 16.5-8.1 7.7-8.7 31.7-43.3 31.7-43.3z"/><text transform="translate(307.053 159.307)"><tspan x="0" y="0" font-family="'BreeSerif-Regular'" font-size="100">Demanding</tspan><tspan x="519" y="0" fill="#B29000" font-family="'BreeSerif-Regular'" font-size="100">Epi</tspan><tspan x="660.3" y="0" fill="#B29000" font-family="'BreeSerif-Regular'" font-size="100">c</tspan><tspan x="706.4" y="0" fill="#B29000" font-family="'BreeSerif-Regular'" font-size="100">urean</tspan></text></svg>
