<svg xmlns="http://www.w3.org/2000/svg" width="263" height="263"><path fill="#B29600" d="M243.2 62.1L206 142.9 69.1 204.4l40.3-144.6 74.4-49c-51.4-22.3-113.5-9.8-152 35-47.3 55-41.1 138.1 14 185.4 55.1 47.4 138.1 41.1 185.4-13.9 38.4-44.7 41.6-107.7 12-155.2z"/><path fill="#9B852D" d="M227.6 95.9l-21.7 47-136.8 61.5 40.3-144.6 43.4-28.6c-11.8-2.5-24.3-3-37-1-56 8.8-94.3 61.2-85.5 117.1s61.1 94.2 117.1 85.5 94.1-61.1 85.4-117c-1.1-7-2.8-13.6-5.2-19.9z"/><path fill="#907D2C" d="M125.5 49.1l11.3-7.5c-6.3-.4-12.7-.1-19.2.9C93.8 46.3 73.6 59.2 60 77c13.2-13.8 30.8-23.6 51.2-26.8 4.8-.7 9.6-1.1 14.3-1.1zm94.2 64.1l-5.7 12.3c3.9 25.1-3.1 49.4-17.4 68.2 18.6-19.6 28.3-47.2 23.9-76-.3-1.5-.5-3-.8-4.5z"/><path fill="#9B852D" d="M205.9 63.5c.2-.3.1-.7-.2-1-.3-.2-.7-.2-1 0L169.8 103l-.1.1c-.7.9-2 .9-2.9.2-.9-.7-.9-2-.2-2.9l.1-.1 33.9-41.4c.2-.3.1-.7-.2-1-.3-.2-.7-.2-1 0l-35.8 39.7-.1.1c-.7.9-2 .9-2.9.2l-.1-.1-.1-.1c-.9-.7-.9-2-.2-2.9l.1-.1 33.9-41.4c.2-.3.1-.7-.2-1s-.7-.2-1 0L157.2 92l-.1.1c-.7.9-2 .9-2.9.2-.9-.7-.9-2-.2-2.9l.1-.1L189 48.8c.2-.3.1-.7-.2-1-.3-.2-.7-.2-1 0 0 0-30.6 28.9-38.2 37.7-6.3 7.3-9.4 13.3-5.6 17.5 3.6 3.9 3.2 6.9-1.8 12.1 0 0-114.3 122.8-114.4 123.9l6.4 5.5 6.4 5.5c1.1-.3 105.4-131.6 105.4-131.6 4.5-5.7 7.3-6.5 11.7-3.5 4.7 3.2 10.1-.8 16.5-8.1 7.7-8.7 31.7-43.3 31.7-43.3z"/></svg>
