<svg xmlns="http://www.w3.org/2000/svg" width="130.2" height="110.4"><path fill="#2D9402" d="M11.6 108.6s17.9-2.6 29.1-7.3C52 96.5 60.1 94.8 66.2 95c6 .2 8.3 2.1 10.2 2.1s3.2-.9 3.2-3.2c0-2.3-6.5-1.7-8.8-1-2.3.7-13.8 1.3-15.4-.1-1.6-1.4-2.3-10.1 6.3-13.4 8.6-3.3 25.2-3.6 29.8-2.4 4.6 1.2 9.3 2.4 12.1 1.4 2.7-1 2.4-3.5 1-5-1.4-1.6-12.4 1.6-18.3.9-5.9-.7-14.1-.6-18.3-4.7-4.2-4.2 2.3-10.8 12.9-12.8 10.6-2 31.6-1.3 35.5-1.2 3.9.1 7.2 2.3 10.5 1.3 3.3-1 4-3.6 2.2-4.9-1.9-1.3-11.4 1.6-17 1.4-5.6-.1-30.3.4-37.2-3.9-6.9-4.3-17-16.9-.9-21.1 8.4-2.2 13.2-1.3 17.1 0 3.9 1.3 5.6.1 6.5-1 .9-1.2-.1-3.3-4.7-3.3-4.6 0-18.8 2.7-25.6 1.9-6.8-.9-13.8-7.8-12.1-10.8 1.7-3 13.1-3.5 16.1-3.2 3 .3 7.5 1.6 8.9-.1 1.4-1.7.3-4.7-5.3-3.5-5.6 1.3-20.1 2.3-23.7 2-3.6-.3-34.8-9.3-43.8-9.9l4.2 108.1z"/><path fill="#2D9402" d="M0 110.4h.8c30.5 0 55.2-24.7 55.2-55.2S31.3 0 .8 0H0v110.4z"/><path fill="#C0F16A" d="M0 107h.8c28.6 0 51.9-23.2 51.9-51.9C52.7 26.5 29.5 3.2.8 3.2H0V107z"/><path fill="#63C902" d="M5 54.2s7.1-2.6 16.9-5c11.6-2.8 22.7-6.3 25.2-.9 2.5 5.4 2.3 15-2.3 16.2-4.7 1.3-37.5-8.3-39.3-8.9-1.8-.5-.5-1.4-.5-1.4z"/><g opacity=".5" fill="#C0F16A"><path d="M43.2 63.1c-1.8-.2-3.6-.5-5.3-.7-.9-.1-1.8-.2-2.6-.4-.9-.2-1.7-.4-2.5-.8.9 0 1.8.1 2.7.2.9.1 1.7.4 2.6.5 1.7.3 3.4.7 5.1 1.2.1-.1.1 0 0 0 .1 0 .1 0 0 0zM33.6 59c-2.1-.2-4.1-.4-6.2-.6-1-.1-2.1-.2-3.1-.4s-2-.4-3-.7c1.1 0 2.1 0 3.1.1s2 .3 3 .5c2.1.3 4.2.7 6.2 1.1 0-.1 0 0 0 0zM19.3 56.3c-1.7-.1-3.3-.2-5-.3-.8-.1-1.7-.1-2.5-.2s-1.6-.3-2.4-.6c.9-.1 1.7-.1 2.5 0 .8 0 1.6.2 2.5.4 1.6.1 3.3.3 4.9.7 0-.1 0-.1 0 0zM29.2 60.5l-2.7-.3c-.5-.1-.9-.1-1.4-.2-.4-.1-.8-.3-1.2-.6v-.1c.5-.1 1-.1 1.4 0 .5 0 .9.2 1.3.3.9.3 1.8.6 2.6.9 0-.1.1 0 0 0zM44.3 47.4l-4.8.9c-.8.1-1.6.3-2.4.4-.8.1-1.7.1-2.5 0 .8-.3 1.6-.5 2.4-.7.8-.2 1.6-.2 2.5-.3 1.5-.1 3.1-.2 4.8-.3 0-.1 0-.1 0 0zM32.4 47.9c-1.4.4-2.7.9-4.1 1.3-.7.2-1.4.5-2.1.6-.7.1-1.5.2-2.3.2 0 0-.1 0 0 0 .6-.4 1.3-.6 2-.8.7-.2 1.4-.3 2.2-.5 1.4-.3 2.8-.6 4.3-.8 0-.1 0 0 0 0zM27.1 51.3l-5.7.9c-.9.1-1.9.3-2.8.4-1 .1-1.9.1-2.9 0 .9-.3 1.8-.5 2.8-.7.9-.2 1.9-.2 2.9-.3 1.8-.1 3.7-.3 5.7-.3 0-.1 0-.1 0 0 0-.1 0 0 0 0zM46.3 53.1c-2.1.2-4.2.3-6.2.5-1 .1-2.1.2-3.1.2s-2.1 0-3.2-.2c1-.2 2.1-.3 3.1-.4 1-.1 2.1 0 3.1 0 2.1-.2 4.2-.2 6.3-.1 0-.1 0-.1 0 0 0-.1 0 0 0 0zM40.6 57.3c-2.4-.1-4.8-.3-7.1-.4-1.2-.1-2.4-.1-3.6-.3-1.2-.2-2.3-.3-3.5-.6 1.2-.1 2.4 0 3.6 0 1.2.1 2.4.3 3.5.4 2.4.2 4.8.5 7.1.9.1-.1.1-.1 0 0 .1 0 0 0 0 0zM46.2 60c-1.5-.1-3-.3-4.4-.4-.7-.1-1.5-.1-2.2-.3-.7-.2-1.4-.3-2.1-.6v-.1c.8-.1 1.5 0 2.3 0 .7.1 1.4.3 2.2.4 1.3.3 2.8.6 4.2 1 0-.1 0-.1 0 0zM29.1 53.3c-1.4.1-2.7.2-4.1.3-.7 0-1.4.1-2.1.1-.7 0-1.4-.1-2.1-.3.7-.2 1.4-.3 2-.4.7-.1 1.4 0 2.1 0 1.5.2 2.8.2 4.2.3 0 0 .1 0 0 0 .1 0 0 0 0 0zM42.8 49.8c-1.7.3-3.4.5-5.1.7-.8.1-1.7.3-2.5.3-.9 0-1.7 0-2.6-.1.8-.3 1.7-.4 2.5-.6.8-.1 1.7-.1 2.6-.2 1.7-.1 3.4-.1 5.1-.1.1-.1.1-.1 0 0 .1-.1.1 0 0 0z"/></g><path fill="#63C902" d="M4.6 57.2s7.3 2.1 16.6 5.9c11.1 4.6 22 8.2 20.9 14.1C41 83.1 35.2 90.7 30.6 89S5.2 60.2 4.1 58.7c-1.1-1.5.5-1.5.5-1.5z"/><g opacity=".5" fill="#C0F16A"><path d="M30.2 86.9c-1.3-1.2-2.6-2.5-3.9-3.7-.6-.6-1.3-1.2-1.9-1.9-.6-.7-1.1-1.4-1.6-2.1.8.5 1.5 1.1 2.1 1.8.7.6 1.2 1.3 1.8 2 1.3 1.2 2.5 2.5 3.5 3.9.1 0 .1 0 0 0 .1 0 .1 0 0 0zM24.8 77.9c-1.6-1.4-3.1-2.7-4.6-4.1-.8-.7-1.6-1.3-2.3-2.1-.7-.7-1.4-1.5-2-2.3v-.1c.9.6 1.7 1.3 2.5 1.9.8.7 1.4 1.5 2.2 2.2 1.5 1.5 2.9 3 4.2 4.5.1 0 .1 0 0 0 .1 0 .1 0 0 0zM14.9 67.3c-1.3-1.1-2.6-2.1-3.8-3.2-.6-.5-1.3-1-1.9-1.6-.6-.6-1.1-1.2-1.6-1.9v-.1c.8.4 1.4 1 2.1 1.5.6.5 1.2 1.2 1.8 1.7 1.1 1.2 2.3 2.4 3.4 3.6.1 0 .1 0 0 0zM20.4 76.5c-.7-.6-1.4-1.2-2-1.9-.3-.3-.7-.6-1-1-.3-.4-.5-.7-.6-1.2.5.2.8.5 1.2.8.3.3.6.7.9 1 .5.9 1.1 1.6 1.5 2.3.1 0 .1 0 0 0 .1.1 0 .1 0 0zM40.3 74.8c-1.5-.7-3-1.4-4.4-2.1-.7-.4-1.5-.7-2.2-1.1-.7-.4-1.4-.9-2.1-1.5V70c.8.2 1.5.5 2.3.9.7.3 1.4.8 2.1 1.2 1.5 1 3 1.8 4.3 2.7.1 0 .1 0 0 0 .1 0 .1 0 0 0zM30.4 68.2c-1.4-.5-2.7-.9-4.1-1.4-.7-.2-1.4-.4-2-.8-.7-.3-1.3-.7-2-1.1v-.1c.7.1 1.4.3 2.1.5.7.2 1.3.6 2 .9 1.4.7 2.7 1.3 4 2 .1 0 .1 0 0 0 .1 0 .1.1 0 0zM24.2 67.8c-1.7-.8-3.4-1.7-5.1-2.6-.8-.4-1.7-.8-2.5-1.3s-1.6-1-2.4-1.7v-.1c.9.3 1.8.7 2.6 1.1.9.4 1.7 1 2.5 1.5 1.6 1 3.3 2 4.9 3.1zM38.6 80.6c-1.8-1.1-3.6-2.2-5.3-3.3-.9-.6-1.8-1.1-2.6-1.7-.8-.6-1.7-1.3-2.4-2v-.1c1 .4 1.9.9 2.8 1.5.9.5 1.7 1.2 2.6 1.8 1.6 1.2 3.3 2.5 4.9 3.8.1-.1.1 0 0 0zM31.6 80.7c-1.9-1.5-3.7-3-5.5-4.5-.9-.8-1.9-1.5-2.7-2.3-.9-.8-1.7-1.7-2.4-2.6v-.1c1 .7 2 1.4 2.9 2.1.9.8 1.8 1.6 2.6 2.4 1.7 1.6 3.4 3.3 5.1 5 0-.1 0 0 0 0zM34.4 86.1l-3.3-3c-.5-.5-1.1-1-1.6-1.5s-.9-1.1-1.3-1.7v-.1c.7.4 1.3.9 1.8 1.4.6.5 1 1.1 1.5 1.6 1.1 1.1 2 2.2 2.9 3.3.1 0 .1 0 0 0 .1 0 .1 0 0 0zM24.6 70.7c-1.2-.7-2.4-1.4-3.5-2.2-.6-.4-1.2-.7-1.7-1.1-.5-.4-1.1-.9-1.5-1.4v-.1c.7.2 1.3.6 1.9.9.6.4 1.1.8 1.7 1.2 1 .9 2.1 1.8 3.1 2.7.1 0 .1 0 0 0zM37.8 75.9l-4.5-2.4c-.8-.4-1.5-.8-2.2-1.2-.7-.5-1.4-1-2.1-1.6v-.1c.8.3 1.6.6 2.3 1 .8.4 1.5.9 2.2 1.4 1.5.9 2.9 1.9 4.3 2.9 0 0 .1 0 0 0z"/></g><path fill="#63C902" d="M2.5 59.4s4.7 6 9.9 14.5c6.2 10.2 13 19.6 8.6 23.7-4.4 4.1-13.5 6.8-16.2 2.7-2.6-4.1-3.6-38.2-3.6-40.1 0-1.8 1.3-.8 1.3-.8z"/><g opacity=".5" fill="#C0F16A"><path d="M5.7 98.5c-.3-1.8-.6-3.5-.9-5.3-.1-.9-.4-1.8-.4-2.6-.1-.9-.1-1.8 0-2.6.3.9.5 1.8.7 2.7.2.9.2 1.8.3 2.6.1 1.7.3 3.4.3 5.2.1 0 .1 0 0 0zM6.7 88c-.5-2-.9-4-1.3-6.1-.2-1-.5-2-.6-3-.1-1-.2-2-.2-3.1.4 1 .6 2 .9 3 .2 1 .3 2 .5 3 .2 2.2.5 4.2.7 6.2 0 .1 0 .1 0 0 0 .1 0 .1 0 0zM4.9 73.6c-.4-1.6-.8-3.2-1.2-4.9l-.6-2.4c-.1-.8-.2-1.6-.2-2.5.4.8.6 1.6.8 2.4.3.8.4 1.7.5 2.5.3 1.6.5 3.3.7 4.9.1 0 0 .1 0 0zM3.9 84.3c-.2-.9-.4-1.8-.5-2.7-.1-.5-.2-.9-.2-1.4 0-.4 0-.9.2-1.3h.1c.2.5.4.9.5 1.4.1.5.1.9.1 1.3-.1.9-.1 1.8-.2 2.7.1.1 0 .1 0 0 0 .1 0 .1 0 0zM21 94.7c-.8-1.4-1.6-2.9-2.4-4.3-.4-.7-.8-1.4-1.1-2.2-.3-.8-.6-1.5-.8-2.4v-.1c.5.6.9 1.3 1.3 2s.7 1.5 1 2.3c.8 1.6 1.4 3.1 2 4.7.1 0 .1 0 0 0zM16.9 83.5c-.8-1.2-1.7-2.4-2.5-3.5-.4-.6-.9-1.2-1.2-1.8-.3-.7-.7-1.3-.9-2.1V76c.5.5 1 1.1 1.4 1.6.4.6.7 1.3 1.1 1.9.7 1.4 1.4 2.7 2.1 4 0 .1 0 0 0 0zM12 79.5c-.9-1.7-1.8-3.4-2.6-5.1-.4-.9-.9-1.7-1.3-2.6-.3-.9-.6-1.8-.9-2.8v-.1c.6.8 1 1.6 1.5 2.5.4.8.8 1.8 1.1 2.6.9 1.9 1.6 3.7 2.2 5.5.1 0 .1 0 0 0 .1 0 .1 0 0 0zM16.2 98.3c-.8-1.9-1.6-3.9-2.4-5.8-.4-1-.8-1.9-1.1-2.9-.3-1-.6-2-.8-3.1.5.9 1 1.9 1.4 2.8.4 1 .7 2 1 3 .7 2 1.4 4 1.9 6 .1 0 .1 0 0 0zM10.5 94.2l-1.8-6.9c-.3-1.2-.6-2.3-.8-3.5-.2-1.2-.4-2.3-.5-3.5.4 1.1.8 2.3 1.1 3.4.3 1.2.5 2.3.7 3.5.5 2.3.9 4.7 1.3 7 0 0 0 .1 0 0 0 .1 0 0 0 0zM9.6 100.3c-.3-1.4-.7-2.9-.9-4.3-.1-.7-.4-1.4-.4-2.2-.1-.7-.1-1.5 0-2.2.3.7.5 1.4.7 2.2.2.7.2 1.5.3 2.2.1 1.4.2 2.9.3 4.3.1.1 0 .1 0 0 0 .1 0 .1 0 0zM10.7 82.1c-.5-1.3-1.1-2.5-1.6-3.8-.3-.6-.6-1.3-.7-1.9-.2-.7-.3-1.4-.4-2.1.4.6.7 1.2 1 1.8.3.6.4 1.3.6 2 .4 1.3.8 2.6 1.1 4 .1 0 .1 0 0 0zM18.3 94c-.8-1.5-1.5-3.1-2.2-4.6-.4-.8-.8-1.5-1.1-2.3-.3-.8-.6-1.6-.7-2.5v-.1c.5.7.9 1.4 1.3 2.2.4.8.6 1.6 1 2.4.6 1.7 1.2 3.3 1.7 4.9.1 0 .1.1 0 0 0 .1 0 .1 0 0z"/></g><g><path fill="#63C902" d="M.9 50.3s-.3-7.6.5-17.6c1-11.9 1.1-23.5 7-24.2 5.9-.7 15 2.5 14.7 7.3-.3 4.8-19.6 33-20.7 34.5-1.1 1.5-1.5 0-1.5 0z"/><g opacity=".5" fill="#C0F16A"><path d="M21.3 16.7l-2.4 4.8-1.2 2.4c-.5.7-.9 1.5-1.5 2.1h-.1c.3-.9.6-1.7 1-2.5s.9-1.5 1.3-2.3c1-1.5 1.9-3 2.9-4.5zM14.4 24.6c-.8 1.9-1.7 3.8-2.5 5.7-.4.9-.8 1.9-1.3 2.8-.5.9-1 1.8-1.6 2.6h-.1c.3-1 .7-2 1.1-2.9.4-1 .9-1.8 1.4-2.7 1-1.9 2-3.7 3-5.5zM7.3 37.3c-.6 1.6-1.2 3.1-1.9 4.6-.3.8-.6 1.6-1 2.3-.4.7-.8 1.4-1.3 2.1H3c.2-.9.5-1.6.8-2.4.3-.8.7-1.5 1.1-2.2.8-1.5 1.6-2.9 2.4-4.4.1 0 .1 0 0 0zM14.5 29.3c-.4.8-.8 1.7-1.2 2.5-.2.4-.4.9-.6 1.2-.3.4-.5.7-.9 1h-.1c.1-.5.2-1 .4-1.4.2-.4.5-.8.7-1.1.6-.8 1.1-1.6 1.7-2.2-.1-.1-.1-.1 0 0 0-.1 0-.1 0 0zM6.7 10.8c-.2 1.6-.4 3.2-.6 4.9-.1.8-.2 1.6-.4 2.4-.2.8-.4 1.6-.8 2.4h-.1c0-.8 0-1.6.1-2.4.1-.8.3-1.6.5-2.4.5-1.7.9-3.3 1.3-4.9zM3.5 22.3c0 1.4 0 2.9-.1 4.3 0 .7 0 1.4-.1 2.2-.1.7-.2 1.5-.5 2.2h-.1c-.1-.7-.2-1.4-.2-2.1 0-.7.2-1.5.2-2.2.3-1.5.5-3 .8-4.4-.1-.1 0-.1 0 0 0-.1 0-.1 0 0zM5 28.4l-.9 5.7c-.1.9-.2 1.8-.5 2.8-.2.9-.5 1.9-.9 2.8h-.1c0-1 .1-1.9.3-2.8.1-.9.4-1.9.6-2.8.5-2 1-3.9 1.5-5.7 0-.1 0-.1 0 0 0-.1 0-.1 0 0zM12.7 10.7c-.5 2-1 4.1-1.5 6.1-.3 1-.5 2-.8 3-.3 1-.7 2-1.2 2.9h-.1c.1-1.1.3-2.1.6-3.1.2-1 .6-2 .9-3 .7-1.9 1.4-3.9 2.1-5.9zM15 17.4c-.9 2.2-1.7 4.4-2.6 6.6-.4 1.1-.9 2.2-1.4 3.3-.5 1.1-1.1 2.1-1.7 3.1h-.1c.3-1.2.7-2.3 1.2-3.4.4-1.1 1-2.2 1.5-3.2.9-2.2 2-4.3 3.1-6.4-.1-.1-.1-.1 0 0 0-.1 0 0 0 0zM19.3 13c-.6 1.4-1.2 2.7-1.8 4.1-.3.7-.6 1.4-.9 2-.4.6-.8 1.2-1.3 1.8h-.1c.2-.8.4-1.5.7-2.1.3-.7.7-1.3 1.1-1.9.8-1.4 1.5-2.7 2.3-3.9-.1-.1 0-.1 0 0 0-.1 0 0 0 0zM7.6 27.1c-.3 1.3-.6 2.7-1 4-.2.7-.3 1.3-.5 2-.2.6-.5 1.3-.9 1.9h-.1c0-.7.1-1.4.3-2.1.2-.7.4-1.3.7-2 .5-1.3 1-2.6 1.5-3.8 0-.1 0-.1 0 0 0-.1 0-.1 0 0zM8.5 12.9c-.3 1.7-.6 3.4-.9 5-.2.8-.3 1.7-.5 2.5s-.5 1.7-.9 2.5h-.1c0-.9.1-1.7.3-2.5.1-.8.4-1.7.6-2.5.5-1.7 1-3.3 1.5-5z"/></g></g><g><path fill="#63C902" d="M3.6 51.6s4.3-6.3 10.8-13.9c7.8-9.1 14.7-18.4 19.9-15.4 5.2 2.9 10.6 10.8 7.6 14.6-3 3.7-35.3 15-37.1 15.6-1.7.6-1.2-.9-1.2-.9z"/><g opacity=".5" fill="#C0F16A"><path d="M39.9 36.6c-1.6.9-3.2 1.7-4.7 2.5-.8.4-1.6.9-2.4 1.2-.8.3-1.6.6-2.5.8.8-.6 1.5-1 2.3-1.4.8-.4 1.6-.7 2.4-1.1 1.6-.8 3.2-1.5 4.9-2 0-.1 0-.1 0 0 0-.1 0-.1 0 0zM29.6 38.8c-1.8 1.1-3.6 2.1-5.4 3.1-.9.5-1.8 1.1-2.7 1.5-.9.4-1.9.8-2.8 1.1.8-.7 1.7-1.2 2.6-1.7.9-.5 1.8-.9 2.8-1.4 1.8-.9 3.6-1.8 5.5-2.6zM16.4 45c-1.4.9-2.8 1.8-4.3 2.6-.7.4-1.4.9-2.2 1.3-.7.4-1.5.7-2.3.9.7-.6 1.3-1.1 2.1-1.5.7-.5 1.5-.8 2.2-1.1 1.5-.9 3-1.6 4.5-2.2 0-.1 0-.1 0 0 .1-.1 0-.1 0 0zM26.9 42.6c-.8.5-1.6.9-2.4 1.3-.4.2-.8.5-1.2.6-.4.1-.9.2-1.3.2.4-.4.8-.6 1.2-.9.4-.2.8-.3 1.3-.5.7-.2 1.6-.5 2.4-.7 0-.1.1-.1 0 0 .1 0 .1 0 0 0zM31.6 23.2c-1.1 1.2-2.2 2.4-3.4 3.6-.6.6-1.1 1.2-1.7 1.7-.6.5-1.3 1.1-2 1.5h-.1c.4-.7 1-1.3 1.5-1.9.6-.6 1.2-1.1 1.8-1.7 1.3-1.1 2.5-2.2 3.9-3.2-.1-.1 0-.1 0 0 0-.1 0-.1 0 0zM22.2 30.5c-.9 1.2-1.7 2.3-2.6 3.4-.4.6-.8 1.2-1.4 1.7-.5.5-1.1 1-1.7 1.5h-.1c.3-.7.7-1.2 1.1-1.8.4-.6 1-1.1 1.5-1.6 1.1-1.1 2.1-2.2 3.2-3.2 0 0 0-.1 0 0zM19.8 36.3c-1.3 1.4-2.7 2.7-4.1 4.1-.7.7-1.3 1.4-2.1 2-.7.6-1.5 1.2-2.4 1.7h-.1a19.996 19.996 0 0 1 4.1-4.1c1.6-1.2 3.1-2.5 4.6-3.7zM36.5 26.6c-1.6 1.4-3.2 2.7-4.8 4-.8.7-1.6 1.4-2.4 2-.9.6-1.7 1.2-2.7 1.7h-.1c.7-.8 1.5-1.5 2.3-2.2.8-.7 1.7-1.2 2.5-1.9 1.7-1.2 3.4-2.4 5.2-3.6-.1-.1 0-.1 0 0zM34.3 33.3c-2 1.3-4 2.6-6.1 3.8-1 .6-2 1.3-3 1.9-1 .6-2.1 1.1-3.2 1.5h-.1c.9-.8 1.9-1.4 2.9-2.1 1-.6 2.1-1.2 3.1-1.7 2.2-1.2 4.3-2.3 6.4-3.4 0 0 .1 0 0 0 .1 0 .1 0 0 0zM40.4 32.3c-1.3.8-2.6 1.5-3.8 2.2-.6.4-1.3.8-1.9 1.1-.7.3-1.4.6-2.1.7.6-.5 1.2-.9 1.9-1.3.6-.4 1.3-.6 2-.9 1.2-.7 2.6-1.3 3.9-1.8 0-.1.1-.1 0 0 .1 0 0 0 0 0zM22.7 36.8c-1 .9-2.1 1.8-3.2 2.7-.5.4-1 .9-1.6 1.3-.6.4-1.2.7-1.8 1H16c.4-.6.9-1 1.5-1.5.5-.5 1.1-.8 1.7-1.2 1.2-.8 2.3-1.6 3.5-2.3zM31.8 25.9c-1.2 1.2-2.5 2.4-3.7 3.5-.6.6-1.2 1.2-1.9 1.7s-1.4 1-2.2 1.5h-.1c.5-.7 1.1-1.3 1.7-1.9.6-.6 1.3-1.1 2-1.6 1.4-1.1 2.8-2.2 4.2-3.2-.1 0 0 0 0 0z"/></g></g></svg>
